<?xml version="1.0" encoding="utf-8"?>
<!-- Generator: Adobe Illustrator 23.0.2, SVG Export Plug-In . SVG Version: 6.00 Build 0)  -->
<svg version="1.1" xmlns="http://www.w3.org/2000/svg" xmlns:xlink="http://www.w3.org/1999/xlink" x="0px" y="0px"
	 viewBox="0 0 398 120" style="enable-background:new 0 0 398 120;" xml:space="preserve">
<style type="text/css">
	.st0{fill:#FCC688;}
	.st1{fill:#FCC687;}
	.st2{fill:#2694C0;}
	.st3{fill:#FFFFFF;}
	.st4{fill:#573A1E;}
	.st5{fill:#EA2127;}
	.st6{fill:#FCC688;stroke:#000000;stroke-width:2;stroke-miterlimit:10;}
	.st7{fill:#BF9A73;}
	.st8{fill:#2D2D2D;}
	.st9{fill:#FCC588;}
	.st10{fill:#D0D2CE;stroke:#000000;stroke-miterlimit:10;}
	.st11{fill:#262626;}
	.st12{fill:#FFFFFF;stroke:#000000;stroke-miterlimit:10;}
	.st13{fill:#62C335;}
	.st14{fill:none;stroke:#000000;stroke-miterlimit:10;}
	.st15{fill:#262626;stroke:#000000;stroke-width:2;stroke-miterlimit:10;}
	.st16{fill:#FCC588;stroke:#000000;stroke-width:2;stroke-miterlimit:10;}
	.st17{fill:#8B8D8A;}
	.st18{fill:none;stroke:#000000;stroke-width:0.5;stroke-miterlimit:10;}
	.st19{fill:#D0D2CE;}
	.st20{fill:none;stroke:#4B737F;stroke-width:2;stroke-miterlimit:10;}
	.st21{fill:#E1BE69;}
	.st22{fill:#F5BF84;stroke:#000000;stroke-width:1.7906;stroke-miterlimit:10;}
	.st23{fill:#F5BF84;stroke:#000000;stroke-width:1.8553;stroke-miterlimit:10;}
	.st24{fill:#F399C0;stroke:#000000;stroke-width:2;stroke-miterlimit:10;}
	.st25{fill:#FFF8B0;}
	.st26{fill:#38B349;}
	.st27{clip-path:url(#SVGID_2_);}
	.st28{fill:none;}
	.st29{clip-path:url(#SVGID_4_);}
	.st30{fill:#1C1B1A;}
	.st31{fill:#007CAA;}
	.st32{fill:#E86775;}
	.st33{fill:#020202;}
	.st34{fill:#FFAFBA;}
	.st35{fill:#E1BD68;}
	.st36{fill:#F5BF84;stroke:#000000;stroke-width:2;stroke-miterlimit:10;}
	.st37{fill:#C5EFEE;}
	.st38{fill:none;stroke:#1C1B1A;stroke-width:2;stroke-miterlimit:10;}
	.st39{fill:url(#);}
	.st40{fill:#E6F0DC;stroke:#1C1B1A;stroke-width:2.0922;stroke-miterlimit:10;}
	.st41{fill:#87120E;}
	.st42{fill:#EFCEE7;}
	.st43{fill:#9F8A75;}
	.st44{fill:#A2AAAF;stroke:#000000;stroke-width:2;stroke-miterlimit:10;}
	.st45{fill:#E6F0DC;stroke:#1C1B1A;stroke-width:2;stroke-miterlimit:10;}
	.st46{fill:#F5BF84;}
	.st47{fill:#E6F0DC;stroke:#6A457C;stroke-width:5;stroke-miterlimit:10;}
	.st48{fill:#353535;}
	.st49{fill:#FFFFFF;stroke:#000000;stroke-width:1.2674;stroke-miterlimit:10;}
	.st50{fill:#91E497;}
	.st51{fill:#FFFFFF;stroke:#000000;stroke-width:1.3196;stroke-miterlimit:10;}
	.st52{clip-path:url(#SVGID_6_);fill:#91E497;}
	.st53{fill:#FFF8B0;stroke:#1C1B1A;stroke-width:2;stroke-miterlimit:10;}
	.st54{fill:none;stroke:#000000;stroke-width:2;stroke-miterlimit:10;}
	.st55{fill:#E86775;stroke:#020202;stroke-width:2;stroke-miterlimit:10;}
	.st56{fill:#E6F0DC;stroke:#1C1B1A;stroke-width:2.1818;stroke-miterlimit:10;}
	.st57{fill:#38B349;stroke:#000000;stroke-width:0.5929;stroke-miterlimit:10;}
	.st58{fill:#E6F0DC;stroke:#1C1B1A;stroke-width:5;stroke-miterlimit:10;}
	.st59{fill:#FCC687;stroke:#1B1A19;stroke-width:2.5925;stroke-miterlimit:10;}
	.st60{fill:none;stroke:#000000;stroke-width:1.7638;stroke-miterlimit:10;}
	.st61{fill:#FCC588;stroke:#000000;stroke-miterlimit:10;}
	.st62{fill:#C4BA70;}
	.st63{fill:none;stroke:#050505;stroke-miterlimit:10;}
	.st64{fill:#D7DBDD;}
	.st65{fill:#262626;stroke:#020202;stroke-miterlimit:10;}
	.st66{fill:#D0D2CE;stroke:#000000;stroke-width:0.4561;stroke-miterlimit:10;}
	.st67{fill:#87120E;stroke:#020202;stroke-miterlimit:10;}
	.st68{fill:#E6F0DC;stroke:#1C1B1A;stroke-miterlimit:10;}
	.st69{fill:none;stroke:#000000;stroke-width:0.9968;stroke-miterlimit:10;}
	.st70{fill:#E6F0DC;stroke:#3E1A5B;stroke-width:5;stroke-miterlimit:10;}
	.st71{fill:#3E1A5B;}
	.st72{fill:none;stroke:#000000;stroke-width:1.5232;stroke-miterlimit:10;}
	.st73{fill:#BF9A73;stroke:#1C1B1A;stroke-width:2;stroke-miterlimit:10;}
	.st74{fill:#7B7B7B;}
	.st75{fill:#231F20;}
	.st76{fill:#8A8989;}
	.st77{fill:#4FE3F6;}
	.st78{enable-background:new    ;}
	.st79{clip-path:url(#SVGID_8_);fill:#CE3434;}
	.st80{clip-path:url(#SVGID_10_);enable-background:new    ;}
	.st81{fill:#CE3434;}
	.st82{clip-path:url(#SVGID_12_);enable-background:new    ;}
	.st83{clip-path:url(#SVGID_14_);enable-background:new    ;}
	.st84{clip-path:url(#SVGID_16_);enable-background:new    ;}
	.st85{clip-path:url(#SVGID_18_);enable-background:new    ;}
	.st86{clip-path:url(#SVGID_20_);enable-background:new    ;}
	.st87{clip-path:url(#SVGID_22_);fill:#CE3434;}
	.st88{clip-path:url(#SVGID_24_);enable-background:new    ;}
	.st89{clip-path:url(#SVGID_26_);fill:#CE3434;}
	.st90{clip-path:url(#SVGID_28_);}
	.st91{clip-path:url(#SVGID_30_);fill:#CE3434;}
	.st92{clip-path:url(#SVGID_32_);enable-background:new    ;}
	.st93{clip-path:url(#SVGID_34_);fill:#CE3434;}
	.st94{clip-path:url(#SVGID_36_);fill:#CE3434;}
	.st95{clip-path:url(#SVGID_38_);enable-background:new    ;}
	.st96{clip-path:url(#SVGID_40_);enable-background:new    ;}
	.st97{clip-path:url(#SVGID_42_);enable-background:new    ;}
	.st98{clip-path:url(#SVGID_44_);enable-background:new    ;}
	.st99{clip-path:url(#SVGID_46_);fill:#CE3434;}
	.st100{clip-path:url(#SVGID_48_);fill:#CE3434;}
	.st101{clip-path:url(#SVGID_50_);enable-background:new    ;}
	.st102{clip-path:url(#SVGID_52_);enable-background:new    ;}
	.st103{clip-path:url(#SVGID_54_);enable-background:new    ;}
	.st104{clip-path:url(#SVGID_56_);enable-background:new    ;}
	.st105{clip-path:url(#SVGID_58_);enable-background:new    ;}
	.st106{clip-path:url(#SVGID_60_);}
	.st107{clip-path:url(#SVGID_62_);enable-background:new    ;}
	.st108{clip-path:url(#SVGID_64_);enable-background:new    ;}
	.st109{clip-path:url(#SVGID_66_);enable-background:new    ;}
	.st110{clip-path:url(#SVGID_68_);fill:#CE3434;}
	.st111{clip-path:url(#SVGID_70_);enable-background:new    ;}
	.st112{clip-path:url(#SVGID_72_);enable-background:new    ;}
	.st113{clip-path:url(#SVGID_74_);enable-background:new    ;}
	.st114{clip-path:url(#SVGID_76_);fill:#CE3434;}
	.st115{clip-path:url(#SVGID_78_);enable-background:new    ;}
	.st116{clip-path:url(#SVGID_80_);fill:#CE3434;}
	.st117{clip-path:url(#SVGID_82_);fill:#CE3434;}
	.st118{clip-path:url(#SVGID_84_);enable-background:new    ;}
	.st119{clip-path:url(#SVGID_86_);enable-background:new    ;}
	.st120{clip-path:url(#SVGID_88_);fill:#CE3434;}
	.st121{clip-path:url(#SVGID_90_);enable-background:new    ;}
	.st122{clip-path:url(#SVGID_92_);enable-background:new    ;}
	.st123{clip-path:url(#SVGID_94_);enable-background:new    ;}
	.st124{clip-path:url(#SVGID_96_);enable-background:new    ;}
	.st125{clip-path:url(#SVGID_98_);enable-background:new    ;}
	.st126{clip-path:url(#SVGID_100_);enable-background:new    ;}
	.st127{clip-path:url(#SVGID_102_);enable-background:new    ;}
	.st128{clip-path:url(#SVGID_104_);enable-background:new    ;}
	.st129{clip-path:url(#SVGID_106_);enable-background:new    ;}
	.st130{clip-path:url(#SVGID_108_);enable-background:new    ;}
	.st131{clip-path:url(#SVGID_110_);enable-background:new    ;}
	.st132{clip-path:url(#SVGID_112_);enable-background:new    ;}
	.st133{clip-path:url(#SVGID_114_);enable-background:new    ;}
	.st134{clip-path:url(#SVGID_116_);enable-background:new    ;}
	.st135{clip-path:url(#SVGID_118_);enable-background:new    ;}
	.st136{clip-path:url(#SVGID_120_);enable-background:new    ;}
	.st137{clip-path:url(#SVGID_122_);enable-background:new    ;}
	.st138{clip-path:url(#SVGID_124_);enable-background:new    ;}
	.st139{clip-path:url(#SVGID_126_);enable-background:new    ;}
	.st140{clip-path:url(#SVGID_128_);enable-background:new    ;}
	.st141{clip-path:url(#SVGID_130_);enable-background:new    ;}
	.st142{clip-path:url(#SVGID_132_);enable-background:new    ;}
	.st143{clip-path:url(#SVGID_134_);enable-background:new    ;}
	.st144{clip-path:url(#SVGID_136_);enable-background:new    ;}
	.st145{clip-path:url(#SVGID_138_);enable-background:new    ;}
	.st146{clip-path:url(#SVGID_140_);enable-background:new    ;}
	.st147{clip-path:url(#SVGID_142_);enable-background:new    ;}
	.st148{clip-path:url(#SVGID_144_);fill:#CE3434;}
	.st149{clip-path:url(#SVGID_146_);fill:#CE3434;}
	.st150{fill:#E71A1A;}
	.st151{fill:#F8F7E4;}
	.st152{fill:#282F8B;}
	.st153{clip-path:url(#SVGID_148_);fill:#E63C1C;}
	.st154{clip-path:url(#SVGID_148_);fill:url(#SVGID_149_);}
	.st155{clip-path:url(#SVGID_148_);fill:url(#SVGID_150_);}
	.st156{clip-path:url(#SVGID_148_);fill:url(#SVGID_151_);}
	.st157{clip-path:url(#SVGID_148_);fill:url(#SVGID_152_);}
	.st158{clip-path:url(#SVGID_148_);fill:url(#SVGID_153_);}
	.st159{clip-path:url(#SVGID_148_);fill:url(#SVGID_154_);}
	.st160{clip-path:url(#SVGID_148_);fill:url(#SVGID_155_);}
	.st161{clip-path:url(#SVGID_148_);fill:url(#SVGID_156_);}
	.st162{clip-path:url(#SVGID_148_);fill:url(#SVGID_157_);}
	.st163{clip-path:url(#SVGID_148_);fill:url(#SVGID_158_);}
	.st164{clip-path:url(#SVGID_148_);fill:url(#SVGID_159_);}
	.st165{clip-path:url(#SVGID_148_);fill:#FFF9F0;}
	.st166{clip-path:url(#SVGID_148_);fill:url(#SVGID_160_);}
	.st167{clip-path:url(#SVGID_148_);fill:url(#SVGID_161_);}
	.st168{clip-path:url(#SVGID_148_);fill:url(#SVGID_162_);}
	.st169{clip-path:url(#SVGID_148_);fill:url(#SVGID_163_);}
	.st170{clip-path:url(#SVGID_148_);fill:url(#SVGID_164_);}
	.st171{clip-path:url(#SVGID_148_);fill:url(#SVGID_165_);}
	.st172{clip-path:url(#SVGID_148_);fill:url(#SVGID_166_);}
	.st173{clip-path:url(#SVGID_148_);fill:url(#SVGID_167_);}
	.st174{clip-path:url(#SVGID_148_);fill:url(#SVGID_168_);}
	.st175{clip-path:url(#SVGID_148_);fill:url(#SVGID_169_);}
	.st176{clip-path:url(#SVGID_148_);fill:url(#SVGID_170_);}
	.st177{clip-path:url(#SVGID_148_);fill:#0B1550;}
	.st178{clip-path:url(#SVGID_148_);fill:#132B70;}
	.st179{clip-path:url(#SVGID_148_);fill:url(#SVGID_171_);}
	.st180{clip-path:url(#SVGID_148_);fill:none;stroke:url(#SVGID_172_);stroke-width:2;stroke-miterlimit:10;}
	.st181{clip-path:url(#SVGID_148_);fill:url(#SVGID_173_);}
	.st182{clip-path:url(#SVGID_175_);fill:#E63C1C;}
	.st183{clip-path:url(#SVGID_175_);fill:url(#SVGID_176_);}
	.st184{clip-path:url(#SVGID_175_);fill:url(#SVGID_177_);}
	.st185{clip-path:url(#SVGID_175_);fill:url(#SVGID_178_);}
	.st186{clip-path:url(#SVGID_175_);fill:url(#SVGID_179_);}
	.st187{clip-path:url(#SVGID_175_);fill:url(#SVGID_180_);}
	.st188{clip-path:url(#SVGID_175_);fill:url(#SVGID_181_);}
	.st189{clip-path:url(#SVGID_175_);fill:url(#SVGID_182_);}
	.st190{clip-path:url(#SVGID_175_);fill:url(#SVGID_183_);}
	.st191{clip-path:url(#SVGID_175_);fill:url(#SVGID_184_);}
	.st192{clip-path:url(#SVGID_175_);fill:url(#SVGID_185_);}
	.st193{clip-path:url(#SVGID_175_);fill:url(#SVGID_186_);}
	.st194{clip-path:url(#SVGID_175_);fill:#FFF9F0;}
	.st195{clip-path:url(#SVGID_175_);fill:url(#SVGID_187_);}
	.st196{clip-path:url(#SVGID_175_);fill:url(#SVGID_188_);}
	.st197{clip-path:url(#SVGID_175_);fill:url(#SVGID_189_);}
	.st198{clip-path:url(#SVGID_175_);fill:url(#SVGID_190_);}
	.st199{clip-path:url(#SVGID_175_);fill:url(#SVGID_191_);}
	.st200{clip-path:url(#SVGID_175_);fill:url(#SVGID_192_);}
	.st201{clip-path:url(#SVGID_175_);fill:url(#SVGID_193_);}
	.st202{clip-path:url(#SVGID_175_);fill:url(#SVGID_194_);}
	.st203{clip-path:url(#SVGID_175_);fill:url(#SVGID_195_);}
	.st204{clip-path:url(#SVGID_175_);fill:url(#SVGID_196_);}
	.st205{clip-path:url(#SVGID_175_);fill:url(#SVGID_197_);}
	.st206{clip-path:url(#SVGID_175_);fill:#0B1550;}
	.st207{clip-path:url(#SVGID_175_);fill:#132B70;}
	.st208{clip-path:url(#SVGID_175_);fill:url(#SVGID_198_);}
	.st209{clip-path:url(#SVGID_175_);fill:none;stroke:url(#SVGID_199_);stroke-width:2;stroke-miterlimit:10;}
	.st210{clip-path:url(#SVGID_175_);fill:url(#SVGID_200_);}
	.st211{clip-path:url(#SVGID_202_);fill:#E63C1C;}
	.st212{clip-path:url(#SVGID_202_);fill:url(#SVGID_203_);}
	.st213{clip-path:url(#SVGID_202_);fill:url(#SVGID_204_);}
	.st214{clip-path:url(#SVGID_202_);fill:url(#SVGID_205_);}
	.st215{clip-path:url(#SVGID_202_);fill:url(#SVGID_206_);}
	.st216{clip-path:url(#SVGID_202_);fill:url(#SVGID_207_);}
	.st217{clip-path:url(#SVGID_202_);fill:url(#SVGID_208_);}
	.st218{clip-path:url(#SVGID_202_);fill:url(#SVGID_209_);}
	.st219{clip-path:url(#SVGID_202_);fill:url(#SVGID_210_);}
	.st220{clip-path:url(#SVGID_202_);fill:url(#SVGID_211_);}
	.st221{clip-path:url(#SVGID_202_);fill:url(#SVGID_212_);}
	.st222{clip-path:url(#SVGID_202_);fill:url(#SVGID_213_);}
	.st223{clip-path:url(#SVGID_202_);fill:#FFF9F0;}
	.st224{clip-path:url(#SVGID_202_);fill:url(#SVGID_214_);}
	.st225{clip-path:url(#SVGID_202_);fill:url(#SVGID_215_);}
	.st226{clip-path:url(#SVGID_202_);fill:url(#SVGID_216_);}
	.st227{clip-path:url(#SVGID_202_);fill:url(#SVGID_217_);}
	.st228{clip-path:url(#SVGID_202_);fill:url(#SVGID_218_);}
	.st229{clip-path:url(#SVGID_202_);fill:url(#SVGID_219_);}
	.st230{clip-path:url(#SVGID_202_);fill:url(#SVGID_220_);}
	.st231{clip-path:url(#SVGID_202_);fill:url(#SVGID_221_);}
	.st232{clip-path:url(#SVGID_202_);fill:url(#SVGID_222_);}
	.st233{clip-path:url(#SVGID_202_);fill:url(#SVGID_223_);}
	.st234{clip-path:url(#SVGID_202_);fill:url(#SVGID_224_);}
	.st235{clip-path:url(#SVGID_202_);fill:#0B1550;}
	.st236{clip-path:url(#SVGID_202_);fill:#132B70;}
	.st237{clip-path:url(#SVGID_202_);fill:url(#SVGID_225_);}
	.st238{clip-path:url(#SVGID_202_);fill:none;stroke:url(#SVGID_226_);stroke-width:2.4613;stroke-miterlimit:10;}
	.st239{clip-path:url(#SVGID_202_);fill:url(#SVGID_227_);}
	.st240{fill:#2C2CF3;}
	.st241{opacity:0.5;fill:url(#SVGID_228_);}
	.st242{opacity:0.5;fill:url(#SVGID_229_);}
	.st243{display:none;}
	.st244{fill:#2694C0;stroke:#1C1B1A;stroke-width:2;stroke-miterlimit:10;}
	.st245{fill:#D7F3FF;}
	.st246{clip-path:url(#SVGID_231_);}
	.st247{fill:none;stroke:#4B737F;stroke-width:0.24;stroke-miterlimit:10;}
	.st248{clip-path:url(#SVGID_233_);}
	.st249{clip-path:url(#SVGID_235_);}
	.st250{fill:#F399C0;}
	.st251{fill:#A2AAAF;}
	.st252{clip-path:url(#SVGID_237_);}
	.st253{fill:#95ABB1;}
	.st254{fill:#D5D5D5;}
	.st255{fill:#D3DDE2;}
	.st256{fill:#FCC687;stroke:#1B1A19;stroke-width:2;stroke-miterlimit:10;}
	.st257{fill:#EA2127;stroke:#1B1A19;stroke-width:2;stroke-miterlimit:10;}
	.st258{fill:#87120E;stroke:#000000;stroke-width:2;stroke-miterlimit:10;}
	.st259{fill:#F9FBF6;stroke:#1B1A19;stroke-width:0.9153;stroke-miterlimit:10;}
	.st260{fill:#573A1E;stroke:#1B1A19;stroke-width:2;stroke-miterlimit:10;}
	.st261{fill:none;stroke:#1C1B1A;stroke-width:2;stroke-miterlimit:1;}
	.st262{fill:#F9FBF6;stroke:#1B1A19;stroke-width:2;stroke-miterlimit:10;}
	.st263{fill:#E6F0DC;stroke:#EA2127;stroke-width:5;stroke-miterlimit:10;}
	.st264{fill:#F9FBF6;stroke:#1B1A19;stroke-miterlimit:10;}
	.st265{fill:#314EDD;}
	.st266{fill:#BEA6CC;}
	.st267{fill:#E6F0DC;}
	.st268{fill:#B5B7B2;}
</style>
<g id="Joe">
</g>
<g id="Ana">
</g>
<g id="Suzt">
</g>
<g id="Jeri">
</g>
<g id="Layer_6">
</g>
<g id="Layer_1">
	<g>
		<path d="M21.6,118C14.1,118,8,111.9,8,104.4V19.6C8,12.1,14.1,6,21.6,6h350.7c7.5,0,13.6,6.1,13.6,13.6v84.7
			c0,7.5-6.1,13.6-13.6,13.6H21.6z"/>
		<path d="M374.4,4H23.6c-6.4,0-11.7,5.3-11.7,11.7v13.7v57.3v13.7c0,6.4,5.3,11.7,11.7,11.7h350.7c6.4,0,11.7-5.3,11.7-11.7V86.7
			V29.4V15.7C386.1,9.3,380.8,4,374.4,4z"/>
		<path class="st3" d="M374.1,4H23.9c-6.6,0-12,5.4-12,12v13.4v57.3v13.4c0,6.6,5.4,12,12,12h350.1c6.6,0,12-5.4,12-12V86.7V29.4V16
			C386.1,9.4,380.7,4,374.1,4z"/>
		<linearGradient id="SVGID_2_" gradientUnits="userSpaceOnUse" x1="199" y1="4.516602e-03" x2="199" y2="108.1002">
			<stop  offset="0" style="stop-color:#FFFFFF;stop-opacity:0"/>
			<stop  offset="0.1205" style="stop-color:#FBFEFF;stop-opacity:6.022971e-02"/>
			<stop  offset="0.2454" style="stop-color:#EEFAFE;stop-opacity:0.1227"/>
			<stop  offset="0.3724" style="stop-color:#DAF3FD;stop-opacity:0.1862"/>
			<stop  offset="0.5008" style="stop-color:#BCEAFB;stop-opacity:0.2504"/>
			<stop  offset="0.6304" style="stop-color:#97DEF8;stop-opacity:0.3152"/>
			<stop  offset="0.761" style="stop-color:#69CFF5;stop-opacity:0.3805"/>
			<stop  offset="0.8898" style="stop-color:#34BEF1;stop-opacity:0.4449"/>
			<stop  offset="1" style="stop-color:#00ADEE;stop-opacity:0.5"/>
		</linearGradient>
		<path style="opacity:0.5;fill:url(#SVGID_2_);" d="M374.1,0H23.9c-6.6,0-12,5.4-12,12v13.4v57.3v13.4c0,6.6,5.4,12,12,12h350.1
			c6.6,0,12-5.4,12-12V82.7V25.4V12C386.1,5.4,380.7,0,374.1,0z"/>
		<g>
			<g>
				<path class="st3" d="M69.6,76.2c-0.6,0-2-0.1-8.5-0.9c-1.3-0.2-2.3-1.3-2.2-2.6c0.6-8.5,0.8-15.6,0.8-21.2
					c0-5.6-0.2-11.8-0.5-18.6c-0.1-1.1,0.6-2.1,1.7-2.5c4.1-1.4,8-2.2,11.5-2.2c5.5,0,9.9,2.2,12.9,6.6c2.8,4.1,4.3,9.1,4.3,14.8
					c0,4.3-0.7,8.4-2.1,12.3c-1.4,4-3.7,7.3-6.7,10C77.6,74.8,73.8,76.2,69.6,76.2z M72.6,40.5c0.1,5,0.2,9.4,0.2,12.9
					c0,3.1-0.1,6.3-0.2,9.6c0.5-0.6,1.2-1.4,1.9-2.7c1.6-2.9,2.4-6,2.4-9.3c0-3.3-0.6-6.1-1.7-8.2c-0.6-1.1-1.5-2.3-2.4-2.3
					C72.7,40.5,72.6,40.5,72.6,40.5z"/>
				<path class="st75" d="M72.4,30.8c4.7,0,8.3,1.8,10.8,5.5C85.8,40,87,44.4,87,49.7c0,4-0.6,7.9-1.9,11.4c-1.3,3.6-3.3,6.6-6,9
					c-2.7,2.4-5.9,3.6-9.5,3.6c-0.7,0-3.4-0.3-8.2-0.8c0.6-8.6,0.8-15.7,0.8-21.4c0-5.6-0.2-11.9-0.5-18.7
					C65.6,31.5,69.2,30.8,72.4,30.8 M71.1,66.4c1.8,0,3.7-1.6,5.5-4.9c1.8-3.3,2.7-6.8,2.7-10.6s-0.7-6.9-1.9-9.3
					c-1.3-2.4-2.9-3.7-4.7-3.7c-1,0-1.9,0.2-2.7,0.5c0.2,5.9,0.2,10.9,0.2,14.9c0,4-0.1,8.2-0.4,12.6C70.2,66.3,70.6,66.4,71.1,66.4
					 M72.4,25.8c-3.8,0-7.9,0.8-12.3,2.3c-2.1,0.7-3.5,2.8-3.3,5c0.4,6.7,0.5,12.9,0.5,18.5c0,5.5-0.3,12.6-0.8,21
					c-0.2,2.7,1.8,5,4.4,5.3c7.4,0.9,8.3,0.9,8.7,0.9c4.9,0,9.2-1.6,12.9-4.9c3.3-3,5.8-6.7,7.4-11.1c1.5-4.1,2.2-8.5,2.2-13.1
					c0-6.2-1.6-11.7-4.7-16.2C83.9,28.4,78.7,25.8,72.4,25.8L72.4,25.8z"/>
			</g>
			<g>
				<path class="st3" d="M102,76.4c-0.1,0-0.2,0-0.2,0l-9.2-0.8c-1.3-0.1-2.2-1.2-2.3-2.4c-0.2-6.3-0.2-12.4-0.2-18
					c0-5.7,0.3-13.1,1-22.2c0.1-1.2,1-2.1,2.1-2.3c6.9-1.1,13.8-1.6,20.4-1.6c1.4,0,2.5,1.1,2.5,2.5v7.4c0,1.4-1.1,2.5-2.5,2.5
					c-3.6,0-7,0.1-10.2,0.3c-0.1,2-0.1,3.7-0.2,5.1c2.5-0.2,5.2-0.4,8.2-0.5c0,0,0,0,0,0c1.2,0,2.3,0.9,2.5,2.1l1.1,6.6
					c0.1,0.7-0.1,1.5-0.5,2c-0.5,0.6-1.2,0.9-1.9,0.9c-2.2,0-5.4,0.3-9.6,0.7c0,2.1,0,3.9,0,5.4c2.8-0.3,6-0.8,9.5-1.5
					c0.2,0,0.3,0,0.5,0c0.5,0,1,0.2,1.4,0.5c0.6,0.4,0.9,1,1,1.7l1,6.6c0.2,1.1-0.4,2.2-1.4,2.7C111.4,75.5,107,76.4,102,76.4z"/>
				<path class="st75" d="M113.5,31.6v7.4c-4.5,0-8.7,0.1-12.6,0.4c-0.2,4.5-0.3,7.9-0.3,10.3c3-0.4,6.6-0.7,10.8-0.8l1.1,6.6
					c-2.7,0-6.7,0.3-12.1,0.9c0,4.8,0,8.3,0.1,10.4c3.5-0.3,7.6-0.9,12.5-1.8l1,6.6c-3.4,1.6-7.4,2.3-12.1,2.3l-9.2-0.8
					c-0.2-6.3-0.2-12.3-0.2-17.9c0-5.6,0.3-13,1-22C100.3,32.1,107,31.6,113.5,31.6 M113.5,26.6c-6.7,0-13.7,0.5-20.8,1.6
					c-2.3,0.4-4.1,2.3-4.2,4.6c-0.6,9.1-1,16.6-1,22.4c0,5.7,0.1,11.7,0.2,18.1c0.1,2.5,2,4.6,4.5,4.9l9.2,0.8c0.2,0,0.3,0,0.5,0
					c5.3,0,10.1-0.9,14.1-2.8c2-0.9,3.2-3.1,2.9-5.3l-1-6.6c-0.2-1.3-0.9-2.5-2.1-3.3c-0.5-0.3-1-0.6-1.6-0.7c0.8-0.3,1.5-0.8,2-1.5
					c0.9-1.1,1.3-2.6,1.1-4l-1.1-6.6c-0.4-2.2-2.1-3.8-4.3-4.1c0.5,0,0.9,0,1.4,0c2.8,0,5-2.2,5-5v-7.4
					C118.5,28.8,116.3,26.6,113.5,26.6L113.5,26.6z M105.8,44.1c0.6,0,1.2,0,1.8-0.1C106.9,44.1,106.3,44.1,105.8,44.1
					C105.8,44.1,105.8,44.1,105.8,44.1L105.8,44.1z M105.5,60.9c1.1-0.1,2.2-0.2,3.2-0.3c-1.1,0.2-2.1,0.3-3.2,0.5
					C105.5,61.1,105.5,61,105.5,60.9L105.5,60.9z"/>
			</g>
			<g>
				<path class="st3" d="M132.8,75.7c-0.1,0-0.1,0-0.2,0l-6.9-0.6c-1-0.1-1.9-0.8-2.2-1.8c-4.1-14.4-7.3-28.2-9.6-40.8
					c-0.1-0.8,0.1-1.6,0.6-2.1c0.5-0.5,1.1-0.8,1.8-0.8c0.1,0,0.2,0,0.2,0l7.7,0.7c1.1,0.1,2.1,1,2.2,2.1c1,6.4,2.1,12.7,3.4,18.8
					c1.7-7.4,3.2-14.6,4.4-21.7c0.2-1.2,1.3-2.1,2.5-2.1c0.1,0,0.1,0,0.2,0l7.9,0.7c0.7,0.1,1.4,0.4,1.8,1c0.4,0.6,0.6,1.3,0.5,2
					c-2.7,13.8-6.7,28.3-12,43C134.8,75,133.8,75.7,132.8,75.7z"/>
				<path class="st75" d="M136.8,29.9l7.9,0.7c-2.7,13.8-6.7,28-11.9,42.7l-6.9-0.6c-4.1-14.4-7.3-28-9.5-40.6l7.7,0.7
					c1.5,10,3.4,19.5,5.7,28.7l0.2-0.1C132.8,50.7,135.1,40.2,136.8,29.9 M136.8,24.9c-2.4,0-4.5,1.7-4.9,4.2
					c-0.5,3.2-1.1,6.4-1.8,9.6c-0.4-2.2-0.7-4.4-1.1-6.7c-0.3-2.3-2.2-4-4.5-4.2l-7.7-0.7c-0.2,0-0.3,0-0.5,0
					c-1.4,0-2.7,0.6-3.7,1.6c-1.1,1.2-1.5,2.7-1.2,4.3c2.3,12.7,5.5,26.5,9.6,41c0.6,2,2.3,3.4,4.4,3.6l6.9,0.6c0.1,0,0.3,0,0.4,0
					c2.1,0,4-1.3,4.7-3.3c5.3-14.8,9.4-29.4,12.1-43.4c0.3-1.4-0.1-2.8-0.9-4s-2.2-1.8-3.6-2l-7.9-0.7
					C137.1,24.9,136.9,24.9,136.8,24.9L136.8,24.9z"/>
			</g>
			<g>
				<path class="st3" d="M169.5,76.2c-0.6,0-2-0.1-8.5-0.9c-1.3-0.2-2.3-1.3-2.2-2.6c0.6-8.5,0.8-15.6,0.8-21.2
					c0-5.6-0.2-11.8-0.5-18.6c-0.1-1.1,0.6-2.1,1.7-2.5c4.1-1.4,8-2.2,11.5-2.2c5.5,0,9.9,2.2,12.9,6.6c2.8,4.1,4.3,9.1,4.3,14.8
					c0,4.3-0.7,8.4-2.1,12.3c-1.4,4-3.7,7.3-6.7,10C177.6,74.8,173.8,76.2,169.5,76.2z M172.5,40.5c0.1,5,0.2,9.4,0.2,12.9
					c0,3.1-0.1,6.3-0.2,9.6c0.5-0.6,1.2-1.4,1.9-2.7c1.6-2.9,2.4-6,2.4-9.3c0-3.3-0.6-6.1-1.7-8.2c-0.6-1.1-1.5-2.3-2.4-2.3
					C172.6,40.5,172.6,40.5,172.5,40.5z"/>
				<path class="st75" d="M172.4,30.8c4.7,0,8.3,1.8,10.8,5.5c2.5,3.7,3.8,8.1,3.8,13.4c0,4-0.6,7.9-1.9,11.4c-1.3,3.6-3.3,6.6-6,9
					c-2.7,2.4-5.9,3.6-9.5,3.6c-0.7,0-3.4-0.3-8.2-0.8c0.6-8.6,0.8-15.7,0.8-21.4c0-5.6-0.2-11.9-0.5-18.7
					C165.6,31.5,169.1,30.8,172.4,30.8 M171,66.4c1.8,0,3.7-1.6,5.5-4.9c1.8-3.3,2.7-6.8,2.7-10.6s-0.7-6.9-1.9-9.3
					c-1.3-2.4-2.9-3.7-4.7-3.7c-1,0-1.9,0.2-2.7,0.5c0.2,5.9,0.2,10.9,0.2,14.9c0,4-0.1,8.2-0.4,12.6
					C170.1,66.3,170.5,66.4,171,66.4 M172.4,25.8c-3.8,0-7.9,0.8-12.3,2.3c-2.1,0.7-3.5,2.8-3.3,5c0.4,6.7,0.5,12.9,0.5,18.5
					c0,5.5-0.3,12.6-0.8,21c-0.2,2.7,1.8,5,4.4,5.3c7.4,0.9,8.3,0.9,8.7,0.9c4.9,0,9.2-1.6,12.9-4.9c3.3-3,5.8-6.7,7.4-11.1
					c1.5-4.1,2.2-8.5,2.2-13.1c0-6.2-1.6-11.7-4.7-16.2C183.8,28.4,178.7,25.8,172.4,25.8L172.4,25.8z"/>
			</g>
			<g>
				<path class="st3" d="M202.4,76.8c-0.1,0-0.1,0-0.2,0l-8.1-0.7c-1.2-0.1-2.2-1.1-2.3-2.3c-0.5-8.2-0.8-15.7-0.8-22.3
					c0-6.6,0.2-13.7,0.5-21c0-0.7,0.3-1.3,0.9-1.8c0.5-0.4,1-0.6,1.6-0.6c0.1,0,0.1,0,0.2,0l8.1,0.7c1.3,0.1,2.4,1.3,2.3,2.6
					c-0.4,6.2-0.5,13.4-0.5,21.2c0,7.8,0.3,15,0.8,21.5c0.1,0.7-0.2,1.5-0.7,2C203.7,76.6,203.1,76.8,202.4,76.8z"/>
				<path class="st75" d="M194.1,30.6l8.1,0.7c-0.4,6.3-0.5,13.4-0.5,21.4s0.3,15.1,0.8,21.7l-8.1-0.7c-0.5-8.2-0.8-15.5-0.8-22.1
					C193.5,44.9,193.7,38,194.1,30.6 M194.1,25.6c-1.2,0-2.4,0.4-3.3,1.2c-1,0.9-1.6,2.2-1.7,3.5c-0.4,7.4-0.5,14.5-0.5,21.2
					c0,6.7,0.3,14.2,0.8,22.4c0.2,2.5,2.1,4.4,4.5,4.7l8.1,0.7c0.1,0,0.3,0,0.4,0c1.3,0,2.6-0.5,3.5-1.4c1-1,1.6-2.5,1.5-3.9
					c-0.5-6.3-0.8-13.5-0.8-21.3c0-7.8,0.2-14.9,0.5-21.1c0.2-2.7-1.9-5-4.5-5.3l-8.1-0.7C194.4,25.6,194.2,25.6,194.1,25.6
					L194.1,25.6z"/>
			</g>
			<g>
				<path class="st3" d="M213.9,78l-8.4-0.7c-0.7-0.1-1.4-0.4-1.8-1c-0.4-0.6-0.6-1.3-0.4-2.1L214,30.7c0.3-1.1,1.3-1.9,2.4-1.9
					c0.1,0,0.1,0,0.2,0l11.1,1c1.1,0.1,2,0.9,2.2,2l7.9,40.7c0.1,0.8-0.1,1.6-0.6,2.1c-0.5,0.5-1.2,0.8-1.9,0.8c-0.1,0-0.1,0-0.2,0
					l-8.7-0.7c-1.1-0.1-2.1-1-2.3-2.1l-1-6.2l-4.8,0.2l-1.9,9.4c-0.2,1.2-1.3,2-2.4,2C214.1,78,214,78,213.9,78z M220.7,55.2l0.7,0
					l-0.3-2L220.7,55.2z"/>
				<path class="st75" d="M216.5,31.3l11.1,1l7.9,40.7l-8.7-0.7l-1.4-8.3l-8.9,0.4l-2.3,11.3l-8.4-0.7L216.5,31.3 M217.7,57.8
					l6.7-0.2l-2.9-18.4L217.7,57.8 M216.5,26.3c-2.3,0-4.3,1.6-4.9,3.8l-10.7,43.5c-0.4,1.4-0.1,2.9,0.8,4.1
					c0.9,1.2,2.2,1.9,3.6,2.1l8.4,0.7c0.1,0,0.3,0,0.4,0c2.4,0,4.4-1.7,4.9-4l1.5-7.4l0.6,0l0.7,4c0.4,2.3,2.2,4,4.5,4.2l8.7,0.7
					c0.1,0,0.3,0,0.4,0c1.4,0,2.8-0.6,3.7-1.7c1-1.2,1.5-2.8,1.2-4.3l-7.9-40.7c-0.4-2.2-2.3-3.8-4.5-4l-11.1-1
					C216.8,26.3,216.6,26.3,216.5,26.3L216.5,26.3z"/>
			</g>
			<g>
				<path class="st3" d="M262.5,78c-0.1,0-0.3,0-0.4,0c-0.7-0.1-1.3-0.5-1.6-1.1c-1.9-2.8-5-7.1-9.2-12.7c-0.1,3.5-0.2,7-0.4,10.2
					c0,0.7-0.3,1.3-0.9,1.8c-0.5,0.4-1,0.6-1.6,0.6c-0.1,0-0.2,0-0.3,0l-8.2-0.9c-1.3-0.1-2.3-1.3-2.2-2.6
					c0.5-9.5,0.8-18.1,0.8-25.5c0-7.4,0-12.4-0.1-14.8c0-1,0.5-1.9,1.4-2.3c4.7-2.2,9.7-3.4,14.8-3.4c4.2,0,7.7,1.4,10.6,4
					c2.9,2.7,4.4,6.5,4.4,11.3c0,5-3,9.8-8.9,14.2c3.1,4,6.4,8.4,9.6,13.1c0.8,1.1,0.5,2.6-0.6,3.4l-5.8,4.3
					C263.5,77.9,263,78,262.5,78z M251.7,39.6c0,3.5,0,6.4,0,8.9c1.2-0.8,2.3-1.7,3.3-2.7c2.1-2.1,2.4-3.3,2.4-3.8
					c0-1.4-0.5-1.9-0.7-2.1c-0.3-0.3-0.9-0.7-2.2-0.7C253.6,39.3,252.7,39.4,251.7,39.6z"/>
				<path class="st75" d="M254.7,29.8c3.5,0,6.5,1.1,8.9,3.4c2.4,2.2,3.6,5.4,3.6,9.5c0,4.7-3.3,9.3-10,13.6
					c3.6,4.6,7.4,9.6,11.2,15.1l-5.8,4.3c-2.5-3.8-7-10-13.6-18.6c-0.1,6.2-0.3,11.9-0.5,17.3l-8.2-0.9c0.5-9.6,0.8-18.2,0.8-25.7
					s0-12.5-0.1-14.8C245.3,30.8,249.9,29.8,254.7,29.8 M249.1,52.9c3-1.4,5.5-3.1,7.6-5.2c2.1-2.1,3.1-3.9,3.1-5.6
					c0-1.7-0.5-3-1.5-3.9s-2.3-1.4-3.9-1.4c-1.6,0-3.4,0.3-5.3,1C249.2,44.6,249.1,49.6,249.1,52.9 M254.7,24.8
					c-5.5,0-10.8,1.2-15.9,3.6c-1.8,0.8-2.9,2.6-2.9,4.6c0,2.4,0.1,7.3,0.1,14.7c0,7.4-0.3,15.9-0.8,25.4c-0.1,2.6,1.8,4.9,4.4,5.2
					l8.2,0.9c0.2,0,0.4,0,0.5,0c1.2,0,2.3-0.4,3.3-1.2c1.1-0.9,1.7-2.2,1.7-3.6c0-1,0.1-2,0.1-3c2.1,2.8,3.7,5.1,4.8,6.8
					c0.8,1.1,2,1.9,3.3,2.2c0.3,0.1,0.6,0.1,0.9,0.1c1.1,0,2.1-0.3,3-1l5.8-4.3c2.2-1.6,2.7-4.6,1.1-6.9c-2.8-4-5.5-7.7-8.2-11.3
					c5.3-4.5,7.9-9.4,7.9-14.6c0-5.5-1.7-9.9-5.1-13.1C263.6,26.3,259.5,24.8,254.7,24.8L254.7,24.8z M254.2,41.8c0.1,0,0.2,0,0.3,0
					c0.1,0,0.2,0,0.3,0c0,0,0,0.1,0,0.2c0,0.1-0.2,0.4-0.6,1C254.2,42.6,254.2,42.2,254.2,41.8L254.2,41.8z"/>
			</g>
			<g>
				<path class="st3" d="M282.2,76.8c-0.1,0-0.1,0-0.2,0l-8.1-0.7c-1.2-0.1-2.2-1.1-2.3-2.3c-0.5-8.2-0.8-15.7-0.8-22.3
					c0-6.6,0.2-13.7,0.5-21c0-0.7,0.3-1.3,0.9-1.8c0.5-0.4,1-0.6,1.6-0.6c0.1,0,0.1,0,0.2,0l8.1,0.7c1.3,0.1,2.4,1.3,2.3,2.6
					c-0.4,6.2-0.5,13.4-0.5,21.2c0,7.8,0.3,15,0.8,21.5c0.1,0.7-0.2,1.5-0.7,2C283.5,76.6,282.9,76.8,282.2,76.8z"/>
				<path class="st75" d="M273.9,30.6l8.1,0.7c-0.4,6.3-0.5,13.4-0.5,21.4s0.3,15.1,0.8,21.7l-8.1-0.7c-0.5-8.2-0.8-15.5-0.8-22.1
					C273.3,44.9,273.5,38,273.9,30.6 M273.9,25.6c-1.2,0-2.4,0.4-3.3,1.2c-1,0.9-1.6,2.2-1.7,3.5c-0.4,7.4-0.5,14.5-0.5,21.2
					c0,6.7,0.3,14.2,0.8,22.4c0.2,2.5,2.1,4.4,4.5,4.7l8.1,0.7c0.1,0,0.3,0,0.4,0c1.3,0,2.6-0.5,3.5-1.4c1-1,1.6-2.5,1.5-3.9
					c-0.5-6.3-0.8-13.5-0.8-21.3c0-7.8,0.2-14.9,0.5-21.1c0.2-2.7-1.9-5-4.5-5.3l-8.1-0.7C274.2,25.6,274,25.6,273.9,25.6
					L273.9,25.6z"/>
			</g>
			<g>
				<path class="st3" d="M299.1,76.4c-0.1,0-0.2,0-0.2,0l-9.2-0.8c-1.3-0.1-2.2-1.2-2.3-2.4c-0.2-6.3-0.2-12.4-0.2-18
					c0-5.7,0.3-13.1,1-22.2c0.1-1.2,1-2.1,2.1-2.3c6.9-1.1,13.8-1.6,20.4-1.6c1.4,0,2.5,1.1,2.5,2.5v7.4c0,1.4-1.1,2.5-2.5,2.5
					c-3.6,0-7,0.1-10.2,0.3c-0.1,2-0.1,3.7-0.2,5.1c2.5-0.2,5.2-0.4,8.2-0.5c0,0,0,0,0,0c1.2,0,2.3,0.9,2.5,2.1l1.1,6.6
					c0.1,0.7-0.1,1.5-0.5,2c-0.5,0.6-1.2,0.9-1.9,0.9c-2.2,0-5.4,0.3-9.6,0.7c0,2.1,0,3.9,0,5.4c2.8-0.3,6-0.8,9.5-1.5
					c0.2,0,0.3,0,0.5,0c0.5,0,1,0.2,1.4,0.5c0.6,0.4,0.9,1,1,1.7l1,6.6c0.2,1.1-0.4,2.2-1.4,2.7C308.5,75.5,304.1,76.4,299.1,76.4z"
					/>
				<path class="st75" d="M310.6,31.6v7.4c-4.5,0-8.7,0.1-12.6,0.4c-0.2,4.5-0.3,7.9-0.3,10.3c3-0.4,6.6-0.7,10.8-0.8l1.1,6.6
					c-2.7,0-6.7,0.3-12.1,0.9c0,4.8,0,8.3,0.1,10.4c3.5-0.3,7.6-0.9,12.5-1.8l1,6.6c-3.4,1.6-7.4,2.3-12.1,2.3l-9.2-0.8
					c-0.2-6.3-0.2-12.3-0.2-17.9c0-5.6,0.3-13,1-22C297.4,32.1,304.1,31.6,310.6,31.6 M310.6,26.6c-6.7,0-13.7,0.5-20.8,1.6
					c-2.3,0.4-4.1,2.3-4.2,4.6c-0.6,9.1-1,16.6-1,22.4c0,5.7,0.1,11.7,0.2,18.1c0.1,2.5,2,4.6,4.5,4.9l9.2,0.8c0.2,0,0.3,0,0.5,0
					c5.3,0,10.1-0.9,14.1-2.8c2-0.9,3.2-3.1,2.9-5.3l-1-6.6c-0.2-1.3-0.9-2.5-2.1-3.3c-0.5-0.3-1-0.6-1.6-0.7c0.8-0.3,1.5-0.8,2-1.5
					c0.9-1.1,1.3-2.6,1.1-4l-1.1-6.6c-0.4-2.2-2.1-3.8-4.3-4.1c0.5,0,0.9,0,1.4,0c2.8,0,5-2.2,5-5v-7.4
					C315.6,28.8,313.4,26.6,310.6,26.6L310.6,26.6z M302.8,44.1c0.6,0,1.2,0,1.8-0.1C304,44.1,303.4,44.1,302.8,44.1
					C302.8,44.1,302.8,44.1,302.8,44.1L302.8,44.1z M302.6,60.9c1.1-0.1,2.2-0.2,3.2-0.3c-1.1,0.2-2.1,0.3-3.2,0.5
					C302.6,61.1,302.6,61,302.6,60.9L302.6,60.9z"/>
			</g>
			<g>
				<path class="st3" d="M327,77.3c-4.4,0-8.1-1.8-11-5.5c-1.9-2.4-3.6-5.3-5.2-8.8c-0.6-1.2,0-2.7,1.2-3.3l5.8-2.8
					c0.3-0.2,0.7-0.2,1.1-0.2c0.3,0,0.6,0.1,0.9,0.2c0.7,0.3,1.2,0.8,1.4,1.4c0.8,2.1,1.8,3.9,3,5.4c0.9,1.1,1.7,1.6,2.5,1.6
					c0.4,0,0.8-0.1,1.1-0.4c0.2-0.1,0.3-0.5,0.3-1c0-0.4-0.1-1.1-0.9-2c-0.9-1-2.1-2-3.6-3c-1.8-1.2-3.1-2.2-4-3
					c-1-0.8-2.1-1.8-3.3-3.1c-2.6-2.7-3.9-6.2-3.9-10.3c0-4.2,1.5-7.8,4.4-10.6c2.9-2.8,6.4-4.3,10.4-4.3c4.1,0,7.6,1.6,10.4,4.7
					c2.7,3.1,4.1,6.3,4.1,9.7c0,3.1-0.6,5.9-1.9,8.2c-0.4,0.8-1.3,1.3-2.2,1.3c-0.3,0-0.5,0-0.8-0.1l-4-1.3c1.4,1,2.4,1.7,3.2,2.3
					c1.4,1.1,2.4,2.1,3,3.1c1.5,2.4,2.2,4.9,2.2,7.4c0,4.3-1.5,7.9-4.5,10.5C334,76,330.6,77.3,327,77.3z M327.2,39.6
					c-0.1,0-0.4,0-0.8,0.6c-0.5,0.7-0.7,1.5-0.7,2.4c0,0.6,0,2.1,2.1,3.9c0-0.2,0-0.4,0.1-0.6c0.5-1.7,0.7-3.2,0.7-4.3
					c0-1-0.3-1.4-0.5-1.7C327.8,39.7,327.6,39.6,327.2,39.6z"/>
				<path class="st75" d="M327.3,30.1c3.4,0,6.2,1.3,8.5,3.9c2.3,2.6,3.5,5.3,3.5,8s-0.5,5.1-1.6,7l-7.4-2.5c0.5-2,0.8-3.6,0.8-4.9
					c0-1.3-0.4-2.4-1.1-3.3c-0.7-0.9-1.7-1.3-2.8-1.3c-1.1,0-2.1,0.6-2.9,1.7s-1.1,2.4-1.1,3.8c0,2.8,1.6,5.2,4.8,7.2
					c3.2,2.1,5.4,3.6,6.5,4.5c1.2,0.9,2,1.8,2.5,2.5c1.2,2,1.8,4,1.8,6.1c0,3.6-1.2,6.5-3.6,8.6s-5.2,3.2-8.2,3.2
					c-3.6,0-6.6-1.5-9.1-4.6c-1.8-2.2-3.4-4.9-4.9-8.2l5.8-2.8c0.9,2.4,2.1,4.4,3.5,6.1c1.4,1.7,2.8,2.5,4.4,2.5c1,0,1.9-0.3,2.7-1
					c0.8-0.6,1.2-1.6,1.2-2.9s-0.5-2.5-1.5-3.6c-1-1.1-2.3-2.3-4-3.4s-3-2.1-3.9-2.9c-0.9-0.7-1.9-1.7-3.1-2.8
					c-2.1-2.2-3.2-5.1-3.2-8.6c0-3.5,1.2-6.4,3.7-8.8C321.1,31.3,324,30.1,327.3,30.1 M327.3,25.1c-4.7,0-8.8,1.7-12.2,5
					c-3.4,3.3-5.2,7.6-5.2,12.4c0,4.8,1.5,8.9,4.5,12c0.3,0.3,0.5,0.5,0.8,0.8l-4.4,2.1c-2.4,1.2-3.5,4.1-2.4,6.6
					c1.6,3.6,3.5,6.8,5.5,9.3c3.4,4.2,7.9,6.4,13,6.4c4.3,0,8.2-1.5,11.5-4.5c3.5-3.1,5.3-7.3,5.3-12.4c0-3-0.9-5.9-2.5-8.7
					c0,0,0,0,0-0.1c-0.2-0.3-0.4-0.7-0.7-1c0.7-0.4,1.2-1.1,1.6-1.8c1.4-2.7,2.1-5.8,2.1-9.4c0-4-1.6-7.8-4.7-11.3
					C336.3,27,332.1,25.1,327.3,25.1L327.3,25.1z"/>
			</g>
		</g>
	</g>
</g>
</svg>
