<svg id="Layer_1" data-name="Layer 1" xmlns="http://www.w3.org/2000/svg" xmlns:xlink="http://www.w3.org/1999/xlink" viewBox="0 0 398 710.34"><defs><style>.cls-1,.cls-10,.cls-15,.cls-16,.cls-18,.cls-3{fill:none;}.cls-2{fill:#334f9c;}.cls-3{stroke:#fff;stroke-width:16px;}.cls-4{clip-path:url(#clip-path);}.cls-5{fill:#020202;}.cls-6,.cls-7{fill:#fdc889;}.cls-10,.cls-11,.cls-15,.cls-16,.cls-18,.cls-6,.cls-9{stroke:#020202;stroke-miterlimit:10;}.cls-15,.cls-6,.cls-9{stroke-width:2px;}.cls-8{fill:#2695c1;}.cls-11,.cls-13,.cls-9{fill:#fff;}.cls-12{fill:#573a1e;}.cls-14{fill:#e72628;}.cls-16{stroke-width:0.75px;}.cls-17{clip-path:url(#clip-path-2);}.cls-18{stroke-width:0.25px;}</style><clipPath id="clip-path"><rect class="cls-1" x="18" width="363" height="693"/></clipPath><clipPath id="clip-path-2"><rect class="cls-1" x="521.79" y="17" width="368" height="676"/></clipPath></defs><title>candiates</title><g id="Rectangle_5" data-name="Rectangle 5"><rect class="cls-2" width="398" height="710.34"/><rect class="cls-3" x="8" y="8" width="382" height="694.34"/></g><g class="cls-4"><g id="Mask_Group_20" data-name="Mask Group 20"><g id="Group_664" data-name="Group 664"><path id="Path_970" data-name="Path 970" class="cls-5" d="M170.55,1253.32c-45.52,0-85.92-17.31-87.62-18l-5.69-2.47v-24.64c-2.1-22.46,7.1-65.64,55-79.31-4.63-57.83,5.16-123.79,5.6-126.69l2.37-15.7c-4.38-44.54-4.67-115.05,1.35-155C103.68,805.89,88,755.82,97.69,692c-16.38-3.1-31.35-12.44-44-27.49-6,2-12.94,3.72-19.2,3.72a25.11,25.11,0,0,1-10.23-1.94C10.05,660,5.53,644.09,7.84,630a27,27,0,0,1-7-22.51c-9.12-6-11.37-12.7-11.47-17.62-.07-3.68,1-8.38,5.33-13.16A21.87,21.87,0,0,1-11.87,563c-1.22-16.3,17.72-27.13,24-30.68q7.6-4.35,14.49-7.59c-1.92-2.73-4.12-6.2-6.67-10.59C14.55,504.88,8,491.12,7,478c-1.38-18.74,9-31.47,28.43-35.26a165.07,165.07,0,0,1-17.08-23.38,95.49,95.49,0,0,1-23.54,3.23c-26.17,0-43.16-13.91-47.83-39.16-2.5-13.49-.24-24.56,6.71-32.91,5.78-6.95,13.58-10.51,20.83-12.28-1.58-9.22-3.38-26.8,1.43-44.42A16.52,16.52,0,0,1-22.66,283C-49.92,184-39.72,169.45-36.34,164.63-22.86,145.37,85.16,49.15,97.43,38.24l3.08-2.74,4.1.39c.44,0,45,4.32,89.9,9.23,93.3,10.2,96.9,12.91,100.1,15.3,2.15,1.62,6.57,4.93,39.82,56.39,6.68-.32,13.13-.52,19.56-.63l3.73-.06,2.77,2.51c4.61,4.18,24.88,23.35,30.45,42.05.64-.05,1.29-.08,1.95-.08,16.42,0,25.61,26.15,28,34.17,5.41,17.9,6.89,39.61-2.52,53.31,11.18,13.3,21.28,32.69,18.08,57.69C431.4,345.37,394,386,325.27,426.62a113.32,113.32,0,0,0,10.15,27.61c18.7-7,67.75-24.56,91.8-26.16,24.36-1.63,52.15-13.58,61.47-19.92,1-11.84,4-46.39,7.59-66.72-7.37-6.44-7.89-13.49-6.54-17.91.8-4.14,5.22-27.06,10.44-54-8.66-4.38-14.68-13.86-14.68-24.81,0-14.86,11.07-27,24.82-27.4,5-25.57,8-41.05,9.07-46.09,3.55-17.16,14.36-26.83,19-31l.3-.26c2.58-6.31,12-33,17.78-49.42,3.92-11.13,6.23-17.66,7.64-21.58a10.19,10.19,0,0,1-1-6.85c.18-.85.42-2,4.64-11.76a13.2,13.2,0,0,1,2.69-8.82c3-3.86,7.84-5.83,14.46-5.83a65,65,0,0,1,12.81,1.57c6.71,1.39,16,4.14,19.13,11.94a13.07,13.07,0,0,1,0,10A29.26,29.26,0,0,1,617,70.75a14.32,14.32,0,0,1-3.34,7l-6.72,76.85c8.22,20.67,8.28,31.09,7,36.14a25.06,25.06,0,0,1,7.72,18,24.75,24.75,0,0,1-3.12,12.07A26.67,26.67,0,0,1,625.59,239a27,27,0,0,1-8.94,19.9,26.71,26.71,0,0,1,1.38,8.45,27,27,0,0,1-8.95,19.9,26.4,26.4,0,0,1,1.39,8.45c0,13.26-9.84,24.36-22.86,26.87-2.83,14.26-4.07,20.47-4.16,20.9a14,14,0,0,1-1.32,3.67c-3.59,30-20,95.15-22.08,103.26-.74,6.95-7,43-56.27,54.83-44.33,10.64-80.26,51-85.44,95.85-.36,3.14-.74,7-1.17,11.35l4.1,2.46.77,4.22c2.95,16.35,28.31,161,8.75,204.05l-.53,1.16-24.91,29.9-7-4.2c-.18-.11-1.57-.95-3.77-2.35,1.72,5.73,3.45,11.53,5.15,17.25,7.37,24.79,15.73,52.89,19.33,59.37,7.59,13.65,4.83,32,2.62,46.83l-.18,1.24L425,969.3v135.84c43,10.74,56.41,44.86,60.54,62.38l1.66-.1.18,10v32l-7.16,1.79c-20.71,5.18-43.81,7.8-68.66,7.8-51.63,0-93.15-11.16-94.89-11.63l-7-1.9V978.93l10.71,2a161.15,161.15,0,0,1,6.06-30.82c-5.7-7.46-16.6-26.2-37.29-78.22-4.57.26-8.79.3-12.56.3-5.88,0-11,.32-15.93.63-2.22.14-4.38.27-6.54.37-2.39,34-6.89,84.31-13.44,102.8v12.87c7.45,2.16,8.9,9.25,10.54,34.67.92,14.28,1.68,34.34,2.27,59.62,1.06,44.91,1.29,94.94,1.35,114.69a69.54,69.54,0,0,1,0,10.8l-.54,5.26-.41.2,2.22,8.15-4.47,3.9C231,1244.19,203.69,1253.32,170.55,1253.32ZM82.06,520.49c7,4.2,13.32,10.44,18.76,17.1,1.49-12.38,5.47-22.79,11.85-30.57,7.25-8.84,17.17-13.71,27.93-13.71A39.22,39.22,0,0,1,162.06,500a10.32,10.32,0,0,1,4.2-4.73l11.68-8.34a210.31,210.31,0,0,1-34.53,3c-34.71,0-64.94-10.1-89.55-29.64,2.56,6,5.19,12.83,6.19,17.84,2.1,10.48,12.9,35.77,18.28,39.11A13.39,13.39,0,0,1,82.06,520.49Z"/><path id="Path_971" data-name="Path 971" class="cls-5" d="M616.14,239a18,18,0,0,0-11.95-16.66,15.6,15.6,0,0,0-.8-27.61c.75-3.75,1.17-5.89,1.17-5.89s3.36-7-7.25-32.79l7.45-85.3s1.94,3,3-1.94-1-10.43-.9-11.05,7.28-7.43-11.09-11.23-19.38,1.09-18.3,5.14c0,0-4.86,11.13-5.12,12.35s3.55,1.38,2.56,3.09-26.65,76.21-28.38,78.41-14.3,10.44-17.85,27.59c-1.32,6.38-5.78,29.18-10.86,55.3a14.59,14.59,0,0,0-6.76-1.69c-8.87,0-16.07,8-16.07,18s7.2,18,16.07,18h.12C504.65,296.12,498.89,326,498.89,326s-2.56,5.36,7.84,11.29c-4.76,21.37-8.94,75.66-8.94,75.66-7.56,7.56-41.58,22.68-69.93,24.57s-96.4,28.36-96.4,28.36c-8.91-13-14-29.38-16.9-43.93,142.64-82.13,121.14-144.17,90.82-174,23.14-15.4,2.42-77.87-12.49-77.87-10.51,0-20.31,13.72-26.25,24.65-4.95-8.57-9.74-19.13-11.91-30.39a219.88,219.88,0,0,1,28.18,5.74c.42-18-28.76-44.42-28.76-44.42q-12.6.21-24.7.9C314,102.49,293.51,71.41,288.93,68,281.37,62.31,103.71,45.3,103.71,45.3S-15.37,151.15-28.6,170.05c-10.07,14.38,7.22,82.4,16.07,114.09-2.23,3.42-3,6.23-2,8.3l.42,1.28c-7.49,23.61-.82,48.69-.82,48.69q5.64-8.34,11.39-16.2l.68,2.1L-4.44,332s1.8,4.52,4.56,11.2c.24,1.43.54,3,.87,4.65-8.21-3.62-52-5.55-44.71,33.87,7.76,41.95,51.29,31.54,66.54,26.5,25.46,46.07,76.78,91.47,178.48,63.88a108.15,108.15,0,0,0,1.63,22.08c1,5.24-2.3,14.34-7.85,26.57-2.84-21.88,2.18-36,2.18-36l-26.46,18.9c-.46,0-1.85,5.51-4,14.14a25.69,25.69,0,0,0-3.61-4.69c-24.57-24.57-64.26-5.67-51,60.48,0,0-16.78-36.2-37.66-46.44.5-.4.24-1-1.09-1.76C64,519.71,52.67,489.47,50.78,480s-11.34-28.35-11.34-28.35c-51,7.56-1.89,73.71,0,73.71,0,0,4,.52,9.23,1.08-8.25,2.11-18.72,6.5-31.91,14-39.69,22.68-5.67,35.91-5.67,35.91-17.38,8.7-15.57,19,1,26.46-4,7.65-2.4,18.38,6.32,23.55-3.74,11.19-1.63,26.24,9.68,31.27,6.06,2.69,17.17.33,28.77-4.4,13,17.64,30.6,30,51.84,30.43C99.13,734,102,797.86,151.91,826.85c-8.32,44.92-6.39,142.52.63,180.75a25.1,25.1,0,0,1-5.36-4s-11.09,73.47-4.77,132.56c-61.8,12.1-55.71,71.57-55.71,71.57s.7.65,2,1.75l-2,.14v17s100.17,43.47,158.76-7.56L242.72,1209c1.76-.81,2.74-1.28,2.74-1.28a61.75,61.75,0,0,0,0-9.52c-.11-40.72-1-198.64-7.54-200.28-1.13-.29-3.45.16-6.62,1V974.28c7.05-16.92,12-79.08,14.06-110.34,9.85.18,18.88-1.18,31.3-1.18a161.11,161.11,0,0,0,18.77-.86c11,28,31.08,76.61,41.72,85.92,0,0-8.71,25.16-7.43,44.32-6.47-1-10.53-1.8-10.53-1.8v207.91S402.34,1220.93,478,1202v-24.57h-.19c-1.16-9.86-9.4-55.72-62.19-64.64V990.35a18.76,18.76,0,0,1-6,3.37,6.28,6.28,0,0,0,1.29-4.32c-1.89-13.23,9.45-43.47,0-60.48-6.3-11.34-21.19-66.68-33.44-105A270.48,270.48,0,0,0,403.29,842l18.9-22.68c18.9-41.58-9.45-198.46-9.45-198.46a36.63,36.63,0,0,0-5.6-2.72c.7-7.23,1.28-13.36,1.82-18.07,5.67-49.14,45.36-92.61,92.61-103.95s49.15-47.25,49.15-47.25S569.92,373.64,573,344a5.6,5.6,0,0,0,1.22-2.37c.1-.5,2.35-11.79,5.57-28a18.65,18.65,0,0,0,2.23.13c10.5,0,19-8,19-17.95a17.36,17.36,0,0,0-4.55-11.64,18,18,0,0,0,12.11-16.71A17.36,17.36,0,0,0,604,255.75,18,18,0,0,0,616.14,239Z"/><path id="Path_972" data-name="Path 972" class="cls-6" d="M-1.2,333.54C-1.2,339.21,25.26,566,271,445.05S407.06,240.93,378.72,229.58c0,0-10.36-23.07-32.14-75.6C314.24,76-28.33,262.54-14.57,292.44"/><path id="Path_973" data-name="Path 973" class="cls-7" d="M112.21,573.58s-35.91-77.49-68-37.8S48,692.66,117.88,683.21s69.93-145.54,45.36-170.11S99,507.43,112.21,573.58Z"/><path id="Path_974" data-name="Path 974" class="cls-7" d="M310.67,386.46s0,49.14,20.79,79.39c0,0,68-26.47,96.39-28.36s62.38-17,69.94-24.57c0,0,5.67-73.71,11.34-83.16s45.36-96.4,45.36-92.61,18.9,77.49,18.9,100.17-22.68,111.52-22.68,111.52-1.89,35.91-49.14,47.25S414.62,550.9,409,600,393.84,853.31,278.54,842s-153.1-49.14-143.65-147.42S206.71,515,202.94,494.2a105.3,105.3,0,0,1,0-37.8Z"/><g id="Path_975" data-name="Path 975"><path class="cls-8" d="M247.17,865.46h0a87.08,87.08,0,0,1-15.48-1.33,116,116,0,0,1-19.23-5.34,250.82,250.82,0,0,1-25.86-11.33c-10.34-5.14-21.94-11.45-35.45-19.31a88,88,0,0,1-31.29-30.6c-7-11.39-11.85-24.88-14.54-40.1a184.35,184.35,0,0,1-2-44.29A255.83,255.83,0,0,1,109.91,671a238.75,238.75,0,0,1,10.85-34.26c3.81-9.3,7.74-16.63,11.09-20.64,5.8-7,12.18-21.62,18.94-43.55,5.72-18.56,10.64-38.79,13.89-52.18,1.23-5.06,2.29-9.43,3.09-12.43.42-1.59.75-2.75,1-3.54a9.91,9.91,0,0,1,.43-1.09,2,2,0,0,1,.85-1l26.33-18.8,3.89-2.78-1.6,4.5a54.43,54.43,0,0,0-2.1,9.54,89.46,89.46,0,0,0-.86,11,101.21,101.21,0,0,0,.81,14.46,117.68,117.68,0,0,0,11.31,36.86,147.14,147.14,0,0,0,12.84,21.28,185,185,0,0,0,19.23,22.43,105.73,105.73,0,0,0,20.23,15.84,111.15,111.15,0,0,0,22,10.08,142.53,142.53,0,0,0,45.29,6.88,198.46,198.46,0,0,0,29-2.22,230.68,230.68,0,0,0,24-4.89,191.69,191.69,0,0,0,22.37-7.11l2.07-.86v2.24a728.94,728.94,0,0,1-4,79.48c-1.24,11.28-2.81,22.13-4.65,32.25-1.77,9.74-3.84,19.07-6.16,27.73-2.22,8.31-4.72,16.23-7.44,23.54A195.26,195.26,0,0,1,374,803.54a150.36,150.36,0,0,1-9.4,16.22,120.69,120.69,0,0,1-10.07,13,95.32,95.32,0,0,1-21.27,18A87.36,87.36,0,0,1,312,860.16a101.74,101.74,0,0,1-19.47,3.55c-5.83.51-11,.55-15.88.55-6.13,0-11.37.33-16.43.65C255.75,865.19,251.53,865.46,247.17,865.46Z"/><path class="cls-8" d="M197.26,484.75l-26.46,18.9c-1.89,0-18.9,90.72-37.8,113.4S70.63,779.6,151.9,826.85C206.81,858.78,228.08,864,247.17,864c9.17,0,17.83-1.2,29.48-1.2,35.91,0,126.63-1.89,126.63-241.93,0,0-34.73,14.34-75.88,14.34-29.72,0-62.79-7.48-88.56-33.24-61.42-61.43-41.58-117.18-41.58-117.18m6.08-8-3.25,9a54.78,54.78,0,0,0-2,9.41,85.06,85.06,0,0,0-.83,10.88,98.27,98.27,0,0,0,.82,14.25,116.18,116.18,0,0,0,11.2,36.33,147.39,147.39,0,0,0,12.7,21,182.66,182.66,0,0,0,19,22.18,103.86,103.86,0,0,0,20,15.61,109.29,109.29,0,0,0,21.67,10,141.22,141.22,0,0,0,44.81,6.8A196,196,0,0,0,356.18,630,231.13,231.13,0,0,0,380,625.1a189.38,189.38,0,0,0,22.12-7l4.14-1.71v4.48a732.33,732.33,0,0,1-4,79.65c-1.26,11.31-2.83,22.19-4.68,32.35-1.77,9.78-3.85,19.15-6.18,27.85C389.21,769,386.69,777,384,784.36a200.27,200.27,0,0,1-8.6,19.86,152.18,152.18,0,0,1-9.49,16.37,122.84,122.84,0,0,1-10.2,13.22,96.85,96.85,0,0,1-21.61,18.26,88.83,88.83,0,0,1-21.64,9.53,102.45,102.45,0,0,1-19.76,3.6c-5.89.52-11.14.56-16,.56-6.08,0-11.3.33-16.34.65-4.49.28-8.74.55-13.14.55a87.13,87.13,0,0,1-15.74-1.36,117.09,117.09,0,0,1-19.49-5.4,254.55,254.55,0,0,1-26-11.39c-10.37-5.16-22-11.49-35.54-19.36a89.83,89.83,0,0,1-31.81-31.12c-7.06-11.55-12-25.22-14.74-40.62a185.81,185.81,0,0,1-2-44.65,256.54,256.54,0,0,1,6.59-42.42,241,241,0,0,1,10.92-34.48c3.86-9.43,7.89-16.9,11.33-21,5.67-6.81,12-21.29,18.66-43,5.71-18.52,10.62-38.72,13.86-52.1,1.24-5.06,2.3-9.44,3.1-12.45.43-1.63.77-2.82,1-3.64a11,11,0,0,1,.5-1.26,3.45,3.45,0,0,1,1.38-1.57l26.28-18.78Z"/></g><g id="Path_978" data-name="Path 978"><path class="cls-8" d="M403.61,843.92l-1.1-.66c-.11-.07-10.67-6.46-21.34-14.52A131.41,131.41,0,0,1,366,815.65a46.09,46.09,0,0,1-5.41-6.62,16.15,16.15,0,0,1-2.67-6.4,7.26,7.26,0,0,1,1.65-5.94c.34-1.59,1.47-9.52,2.44-21.55a447.84,447.84,0,0,0,1.36-47.46c-.56-20.73-2.75-39-6.5-54.22a123.7,123.7,0,0,0-8.25-23.75,66.54,66.54,0,0,0-12.55-18.37l-1.4-1.4,1.73-1a140.89,140.89,0,0,1,16.91-7.67A132.44,132.44,0,0,1,370.36,616a85.73,85.73,0,0,1,19.28-2.41c9.29,0,17.32,2,23.86,5.92l.59.35.12.67c0,.09,1.8,10,4.14,25.2,2.16,14,5.24,35.57,7.69,58.54,2.75,25.84,4.14,48.19,4.14,66.43A232.26,232.26,0,0,1,428.69,799c-1.09,8.77-2.83,15.81-5.14,20.9l-.09.19-.12.15-18.91,22.68Z"/><path class="cls-8" d="M389.64,615.13c-25.45,0-52.51,15.15-52.51,15.15,41.58,41.58,24.57,166.33,23.79,167.16C349.53,809.53,403.28,842,403.28,842l18.9-22.68c18.9-41.58-9.45-198.46-9.45-198.46-6.89-4.14-14.91-5.7-23.09-5.7m0-3c9.57,0,17.86,2.06,24.64,6.13l1.16.7.24,1.34c0,.1,1.81,10,4.15,25.24,2.16,14,5.25,35.61,7.7,58.61,2.75,25.89,4.15,48.3,4.15,66.59a233.38,233.38,0,0,1-1.5,28.46c-1.12,8.92-2.89,16.1-5.27,21.33l-.16.37-.26.31-18.9,22.68-1.65,2-2.21-1.33c-.43-.26-10.74-6.5-21.46-14.61a130.94,130.94,0,0,1-15.35-13.24c-5.17-5.38-7.95-9.91-8.49-13.86a8.8,8.8,0,0,1,1.74-6.79c.37-2.06,1.45-9.72,2.39-21.57a447.34,447.34,0,0,0,1.3-47.27c-.59-20.51-2.78-38.56-6.51-53.62C350.79,655.2,344,641.35,335,632.4l-2.8-2.8,3.45-1.94a143.31,143.31,0,0,1,17.11-7.76A134.05,134.05,0,0,1,370,614.57,87.61,87.61,0,0,1,389.64,612.13Z"/></g><path id="Path_979" data-name="Path 979" class="cls-9" d="M171.75,370.4s-9.45-16.2-7.56-17.56S194.43,342,194.43,342L205,359.83S179.31,367.69,171.75,370.4Z"/><path id="Path_980" data-name="Path 980" class="cls-10" d="M135.35,360c18,5.5,37.81,11,55.26,3.83,7.19-2.93,13.38-7.81,20-11.82a94,94,0,0,1,51.81-13.43c4.1.16,8.36.55,12.18-.94,3.32-1.3,5.93-3.9,8.43-6.45q18.13-18.49,35-38.2"/><path id="Path_981" data-name="Path 981" class="cls-10" d="M313.68,280.69c.06,4,1.82,7.79,3.89,11.23,1.77,2.94,3.88,5.82,6.84,7.56s6.95,2.12,9.76.13"/><path id="Path_982" data-name="Path 982" class="cls-10" d="M134.23,355.61c.81,6.23,1.63,12.59.46,18.77-.63,3.35-2.3,7-5.61,7.9"/><path id="Path_983" data-name="Path 983" class="cls-10" d="M217,372.33c5.4-1.73,10.42-4.47,15.69-6.55s11-3.51,16.6-2.44"/><path id="Path_984" data-name="Path 984" class="cls-7" d="M28.1,406.31s-62.37,26.46-71.82-24.57C-51,342.31-7.21,344.25,1,347.87S28.1,406.31,28.1,406.31Z"/><path id="Path_985" data-name="Path 985" class="cls-11" d="M305.92,220.06s-8.77-15.64-36.24-2.3-24,29.23-17,35.59,28.73,13.36,44.24,1.92S309.1,230.61,305.92,220.06Z"/><path id="Path_986" data-name="Path 986" class="cls-11" d="M106.54,297.63s-5.67-17,22.68-28.35,37.8,1.89,37.8,11.34-9.45,30.24-28.35,34S112.21,307.08,106.54,297.63Z"/><path id="Path_987" data-name="Path 987" class="cls-7" d="M360.76,207.85c0-1.89,15.12-37.8,32.13-37.8s41.58,81.27,0,81.27S360.76,207.85,360.76,207.85Z"/><ellipse id="Ellipse_27" data-name="Ellipse 27" class="cls-12" cx="279.95" cy="237.14" rx="17.48" ry="22.68"/><ellipse id="Ellipse_28" data-name="Ellipse 28" class="cls-5" cx="279.48" cy="237.14" rx="6.61" ry="7.56" transform="translate(-21.27 27.64) rotate(-5.45)"/><circle id="Ellipse_29" data-name="Ellipse 29" class="cls-13" cx="283.26" cy="228.64" r="4.72"/><g id="Path_988" data-name="Path 988"><path class="cls-12" d="M45.7,291.82l-1.32-1.49s3.49-3.69,9.18-9.05c5.25-4.94,13.54-12.41,23.24-19.87a192.25,192.25,0,0,1,31-19.92,101,101,0,0,1,16.5-6.59,58.31,58.31,0,0,1,16.17-2.51,39.74,39.74,0,0,1,8.79.94l.43.1.22.39,9.45,17,.77,1.39-1.58.1s-4.09.24-10.78,1.15a265.46,265.46,0,0,0-27.36,5.21,247.5,247.5,0,0,0-36.52,11.91A187.34,187.34,0,0,0,45.7,291.82Z"/><path class="cls-12" d="M45.11,291c49.14-35.91,113.41-39.69,113.41-39.69l-9.45-17a38.67,38.67,0,0,0-8.57-.92c-41,0-95.39,57.62-95.39,57.62m1.18,1.62-2.63-3c.14-.15,3.5-3.71,9.21-9.09,5.27-5,13.59-12.44,23.32-19.94a193.66,193.66,0,0,1,31.19-20,102.52,102.52,0,0,1,16.67-6.66,59.51,59.51,0,0,1,16.45-2.55,40.53,40.53,0,0,1,9,1l.87.2.43.78,9.45,17,1.55,2.78-3.18.19s-4.06.24-10.74,1.14a269.05,269.05,0,0,0-27.26,5.2,248,248,0,0,0-36.35,11.87A185.83,185.83,0,0,0,46.29,292.63Z"/></g><g id="Path_989" data-name="Path 989"><path class="cls-12" d="M226.22,228.3l-.55-1.1-9.46-18.9-.33-.68.55-.51s3.34-3.06,8.89-7.51a272.26,272.26,0,0,1,22.91-16.49,188.76,188.76,0,0,1,31.46-16.51c12.54-5,24.18-7.54,34.6-7.54a57.81,57.81,0,0,1,12.54,1.33l2.4.53-2.09,1.3c-.2.12-20.54,12.72-42.93,27-29.61,18.9-49.33,32.14-57,38.3Z"/><path class="cls-12" d="M226.56,226.75c18.9-15.12,100.05-65.38,100.05-65.38a56.22,56.22,0,0,0-12.32-1.31c-45.14,0-97.18,47.79-97.18,47.79l9.45,18.9m-.68,3.11-1.11-2.22-9.45-18.9-.67-1.35,1.11-1c.13-.12,3.36-3.08,8.93-7.55a272.9,272.9,0,0,1,23-16.55,189.67,189.67,0,0,1,31.63-16.6c12.66-5,24.42-7.61,35-7.61a58.66,58.66,0,0,1,12.76,1.35l4.79,1.07-4.17,2.59c-.21.12-20.54,12.72-42.92,27-29.58,18.87-49.27,32.09-56.94,38.23Z"/></g><ellipse id="Ellipse_30" data-name="Ellipse 30" class="cls-12" cx="128.16" cy="292.43" rx="15.95" ry="21.26"/><circle id="Ellipse_31" data-name="Ellipse 31" class="cls-5" cx="125.44" cy="293.85" r="7.56"/><circle id="Ellipse_32" data-name="Ellipse 32" class="cls-13" cx="129.22" cy="286.29" r="4.72"/><path id="Path_990" data-name="Path 990" class="cls-6" d="M66.25,602s28,4.66,31.78,17.89-52.92,45.36-69.93,37.8-13.23-37.8,0-43.47S66.25,602,66.25,602Z"/><path id="Path_991" data-name="Path 991" class="cls-6" d="M67.79,574.53S96.14,580.2,98,597.21s-47.25,34-69.93,32.13-22.68-28.35-7.56-34S67.79,574.53,67.79,574.53Z"/><path id="Path_992" data-name="Path 992" class="cls-6" d="M54.56,542.39S79.13,540.5,86.69,567s-49.14,45.36-69.93,37.8-24.57-18.9-5.67-28.36S54.56,542.39,54.56,542.39Z"/><path id="Path_993" data-name="Path 993" class="cls-7" d="M39.44,525.38c-1.89,0-51-66.15,0-73.71,0,0,9.45,18.9,11.34,28.35S64,519.71,73.46,525.38,39.44,525.38,39.44,525.38Z"/><path id="Path_994" data-name="Path 994" class="cls-6" d="M11.09,576.42s-34-13.24,5.67-35.92,54.81-17,58.59-5.67S11.09,576.42,11.09,576.42Z"/><path id="Path_995" data-name="Path 995" class="cls-14" d="M-7.81,300.46S-41.83,189-28.6,170.05,103.7,45.3,103.7,45.3,281.37,62.31,288.93,68s58.59,87,58.59,87C343.76,129.66,107.55,162.73-7.81,300.46Z"/><g id="Path_996" data-name="Path 996"><path class="cls-13" d="M73.09,222.41l-.31-1.19L51.7,140.06l-.13-.53.36-.4c23.51-26,51.54-45,83.32-56.32a207.81,207.81,0,0,1,69.23-12,149.21,149.21,0,0,1,25,1.81l.49.09.22.45,28,57.59.44.89-.9.44L74.19,221.87Z"/><path class="cls-13" d="M73.75,221l183.52-89.74-28-57.58a146.85,146.85,0,0,0-24.77-1.79c-34.47,0-98.66,9.06-151.81,67.94L73.75,221m-1.32,2.87-.62-2.36L50.74,140.31l-.28-1.05.73-.8C74.81,112.29,103,93.25,134.91,81.87a207,207,0,0,1,38.49-9.65,209.09,209.09,0,0,1,31.08-2.36c15.33,0,24.75,1.75,25.14,1.83l1,.18.44.91,28,57.58.87,1.79-1.79.88L74.63,222.77Z"/></g><g id="Path_997" data-name="Path 997"><path class="cls-13" d="M78.24,211.19,78,210.3,60.3,142.08l-.11-.4.29-.3C82.92,117.43,109.54,100,139.59,89.6a200,200,0,0,1,64.89-10.93,161.72,161.72,0,0,1,19.81,1.14l.41,0,.17.36,23,47.21.32.67-.67.33L79.07,210.79Z"/><path class="cls-13" d="M204.48,79.42c-32,0-92.6,8.21-143.46,62.47l17.72,68.23,168.43-82.36-23-47.21a161.38,161.38,0,0,0-19.72-1.13m0-1.5a163.54,163.54,0,0,1,19.91,1.14l.8.1.36.73,23,47.21.66,1.35-1.35.65L79.4,211.46l-1.65.81-.46-1.78L59.57,142.27l-.21-.8.57-.6a195.87,195.87,0,0,1,79.42-52,200.86,200.86,0,0,1,65.13-11Z"/></g><g id="Path_998" data-name="Path 998"><path class="cls-12" d="M358.65,228.76h0a5.94,5.94,0,0,1-.87-.06c-1.13-.17-2.7-1.34-6.48-8.75-2.18-4.25-4.84-10.12-7.93-17.44-5.25-12.45-10-25-10-25.1l-.14-.36.14-.36c.05-.12,4.61-11.82,9.5-23.38,2.88-6.79,5.31-12.21,7.22-16.1,1.15-2.33,2.12-4.14,2.9-5.38,1.12-1.78,1.88-2.48,2.69-2.48a1.3,1.3,0,0,1,1,.5c.54.68.53,1.94.34,3.64s-.65,4.24-1.34,7.42c-1.81,8.24-1.54,17.25.79,26.79A99.46,99.46,0,0,0,366,191.51,133.88,133.88,0,0,0,382.28,215l.71.77-.8.67a78.16,78.16,0,0,1-12.05,8.17C366.7,226.51,361.92,228.76,358.65,228.76Z"/><path class="cls-12" d="M358.65,227.76c5.23,0,16.5-6.68,22.9-12.08,0,0-34.89-38.2-26.84-75,1.62-7.39,1.76-10.35,1-10.35-3.2,0-21.38,46.7-21.38,46.7s18.79,49.95,23.63,50.66a5.58,5.58,0,0,0,.73,0m0,2h0v0a8.17,8.17,0,0,1-1-.07c-1.66-.24-3.44-1.88-7.22-9.28-2.19-4.28-4.86-10.17-8-17.52-5.26-12.46-10-25-10-25.13l-.27-.72.28-.71c.05-.12,4.61-11.84,9.51-23.41,2.89-6.81,5.32-12.24,7.24-16.15,1.17-2.36,2.16-4.2,3-5.47,1.14-1.82,2.13-3,3.53-3a2.32,2.32,0,0,1,1.8.87c.67.83.82,2,.55,4.38a76.2,76.2,0,0,1-1.36,7.53c-1.77,8.09-1.5,17,.79,26.33A98.32,98.32,0,0,0,366.87,191,133.48,133.48,0,0,0,383,214.34l1.41,1.53-1.59,1.34a79.67,79.67,0,0,1-12.22,8.29C367.08,227.44,362.13,229.76,358.65,229.76Z"/></g><g id="Path_999" data-name="Path 999"><path class="cls-12" d="M29.86,400.76h0a8.45,8.45,0,0,1-1.16-.08c-1.14-.16-2.39-1.26-4.06-3.58a75.42,75.42,0,0,1-4.76-7.91c-3.05-5.67-6.8-13.51-11.15-23.28-7.39-16.63-14-33.36-14.1-33.52l-.15-.38.15-.37c.07-.16,6.49-15.79,13.38-31.22,4.05-9.08,7.47-16.31,10.17-21.5a82.35,82.35,0,0,1,4.07-7.16c1.49-2.25,2.45-3.13,3.42-3.13a1.45,1.45,0,0,1,1.14.56,3.22,3.22,0,0,1,.52,1.86,18.8,18.8,0,0,1-.15,2.78,100.13,100.13,0,0,1-1.89,9.85,67.79,67.79,0,0,0-1.6,18.14,86.45,86.45,0,0,0,2.72,17.77,129.48,129.48,0,0,0,13.42,31.88A186.55,186.55,0,0,0,55.4,374.26c4.35,5.45,7.41,8.64,7.44,8.67l.76.79-.85.69a109.88,109.88,0,0,1-16.91,10.87C41,397.78,34.37,400.76,29.86,400.76Z"/><path class="cls-12" d="M29.86,399.76c7.37,0,23.25-8.93,32.26-16.13,0,0-49.14-51-37.8-100.18,2.28-9.87,2.48-13.82,1.35-13.82C21.16,269.63-4.44,332-4.44,332S22,398.75,28.84,399.69a6.63,6.63,0,0,0,1,.07m0,2v0a8.81,8.81,0,0,1-1.29-.09c-1.46-.2-2.87-1.39-4.74-4a76.48,76.48,0,0,1-4.83-8c-3.06-5.7-6.83-13.56-11.18-23.36-7.4-16.64-14-33.39-14.12-33.55l-.3-.75.31-.75C-6.23,331.1.2,315.46,7.1,300c4.06-9.09,7.49-16.34,10.19-21.55a80.44,80.44,0,0,1,4.12-7.25A17.08,17.08,0,0,1,23.14,269a3.64,3.64,0,0,1,2.53-1.32,2.45,2.45,0,0,1,1.92.94c.76,1,.92,2.47.58,5.38a101.08,101.08,0,0,1-1.9,9.95,66.93,66.93,0,0,0-1.58,17.86,84.12,84.12,0,0,0,2.68,17.53,128.08,128.08,0,0,0,13.29,31.6,184.34,184.34,0,0,0,15.47,22.68c4.34,5.44,7.4,8.64,7.43,8.67l1.52,1.58-1.71,1.37a112,112,0,0,1-17.07,11C41.4,398.72,34.58,401.76,29.86,401.76Z"/></g><g id="Path_1000" data-name="Path 1000"><path class="cls-14" d="M-15.57,346l-.85-3.18c0-.12-.75-2.82-1.45-7.3a110.33,110.33,0,0,1-1.34-17.93A83.77,83.77,0,0,1-16,294.52,57.41,57.41,0,0,1-3.59,272l.2-.22c12.28-13.52,44.9-49.42,102.89-82.49a459.22,459.22,0,0,1,48.31-23.86A493.69,493.69,0,0,1,206.05,145a544.82,544.82,0,0,1,68.62-14.54c12.52-1.83,25.42-3.29,38.34-4.34,13.43-1.08,27.26-1.75,41.11-2h.59l.44.4a162.85,162.85,0,0,1,14.69,15.63,93.71,93.71,0,0,1,10.07,14.67c3.08,5.77,4.6,10.9,4.49,15.26l0,2-1.89-.57a204.77,204.77,0,0,0-21.58-4.68c-8-1.36-16.37-2.44-24.89-3.21-10.64-1-21.55-1.47-32.41-1.47a362.1,362.1,0,0,0-69.8,6.78,351.93,351.93,0,0,0-80.95,26.36,361.88,361.88,0,0,0-42.4,23.38A384.37,384.37,0,0,0,68,250.33a428.6,428.6,0,0,0-41.69,41.15,503.62,503.62,0,0,0-40,51.77Z"/><path class="cls-14" d="M-15,342.41C88.86,188.77,220.82,160.62,303.59,160.62c47.88,0,79.32,9.43,79.32,9.43.41-18-28.77-44.42-28.77-44.42C127.33,129.41,21.48,246.59-2.48,273S-15,342.41-15,342.41m-1.2,7.14-1.7-6.37a105.37,105.37,0,0,1-2.84-25.63,85.14,85.14,0,0,1,3.29-23.45A59,59,0,0,1-4.7,271l.2-.22a398.73,398.73,0,0,1,34.41-34,424.09,424.09,0,0,1,68.85-48.78A461.3,461.3,0,0,1,147.23,164a494.72,494.72,0,0,1,58.41-20.45A546.46,546.46,0,0,1,274.45,129c12.56-1.83,25.49-3.3,38.44-4.34,13.46-1.09,27.33-1.76,41.2-2l1.19,0,.88.8A161.74,161.74,0,0,1,371,139.21c10.08,12.32,15.09,22.72,14.9,30.91l-.09,3.93L382,172.92a202.36,202.36,0,0,0-21.47-4.65c-7.95-1.35-16.28-2.42-24.75-3.19-10.59-1-21.43-1.46-32.23-1.46a360.61,360.61,0,0,0-69.51,6.75,350.51,350.51,0,0,0-80.61,26.25,361.08,361.08,0,0,0-42.22,23.28,382.73,382.73,0,0,0-42.33,31.57,427.86,427.86,0,0,0-41.54,41,501.94,501.94,0,0,0-39.87,51.61Z"/></g><g id="Path_1009" data-name="Path 1009"><path class="cls-8" d="M258.32,799.06a71.55,71.55,0,0,1-14.16-1.36,58,58,0,0,1-12.11-3.85,54.39,54.39,0,0,1-18.57-13.74c-6.74-7.6-12.06-17.53-15.81-29.5a149.17,149.17,0,0,1-6-32.21,210.33,210.33,0,0,1-.48-25.94c.28-6.55.76-10.55.78-10.71l.23-1.86,1.76.62a219,219,0,0,0,22.27,6.19c7.86,1.8,15.75,3.23,23.45,4.26a211.33,211.33,0,0,0,27.75,1.92c22.36,0,41.44-4.13,56.72-12.28l2-1,.23,2.21c0,.17.44,4.16.62,10.7a214.51,214.51,0,0,1-.87,25.93,150.45,150.45,0,0,1-6.44,32.18c-3.92,12-9.38,21.89-16.22,29.5a55.84,55.84,0,0,1-18.78,13.76,58.27,58.27,0,0,1-12.18,3.85A71.2,71.2,0,0,1,258.32,799.06Z"/><path class="cls-8" d="M193.5,681.93s-14,115.63,64.82,115.63S324.9,681.93,324.9,681.93c-17.52,9.34-38,12.45-57.43,12.45-38.93,0-74-12.45-74-12.45m133.91-4.74.47,4.42c0,.17.44,4.22.63,10.82a213.76,213.76,0,0,1-.88,26.11,152.31,152.31,0,0,1-6.5,32.51c-4,12.17-9.56,22.27-16.54,30C293,794,277.4,800.56,258.32,800.56s-34.53-6.55-46-19.46c-6.88-7.76-12.31-17.87-16.12-30a151,151,0,0,1-6-32.53,213.64,213.64,0,0,1-.48-26.14c.29-6.6.77-10.65.79-10.82l.45-3.73,3.54,1.26h0a220.12,220.12,0,0,0,22.14,6.15c7.81,1.79,15.65,3.21,23.3,4.22a209.48,209.48,0,0,0,27.52,1.91c22.11,0,41-4.07,56-12.1Z"/></g><path id="Path_1010" data-name="Path 1010" class="cls-15" d="M213.33,228.64s-5.67,17,3.78,22.68c0,0,32.13,3.78,32.13,30.24s-34,39.69-52.92,20.79"/><path id="Path_1011" data-name="Path 1011" class="cls-16" d="M177.42,240s11.34,18.9,11.34,32.13"/><path id="Path_1013" data-name="Path 1013" class="cls-16" d="M399.27,186.09s-8.59-10.55-17.24.77,15.38,29.69,27.7,29.13"/><path id="Path_1014" data-name="Path 1014" class="cls-10" d="M259.65,513.61a438.23,438.23,0,0,1-2,53.73"/><path id="Path_1015" data-name="Path 1015" class="cls-10" d="M306.49,598.34a141.75,141.75,0,0,0,46.86-2.93"/><circle id="Ellipse_38" data-name="Ellipse 38" class="cls-5" cx="322.95" cy="570.74" r="5.67"/><g id="Group_663" data-name="Group 663"><g id="Group_662" data-name="Group 662"><path id="Path_1018" data-name="Path 1018" class="cls-5" d="M109.43,167.68a54.13,54.13,0,0,1-12.14,10,3.9,3.9,0,0,1-3.09.45,4.14,4.14,0,0,1-2.61-1.61c-6.25-9.12-9.54-13.61-16.48-22.42l-2.35-2.73a19,19,0,0,1-2.05-2.76c-.83-1.44.24-3.17,2.31-5.18A36.47,36.47,0,0,1,78.85,139a20,20,0,0,1,11-2.91c4.91,0,8.45,1.67,10.56,4.8a9.68,9.68,0,0,1,1.81,4.85,12.77,12.77,0,0,1-.84,4.62,14.43,14.43,0,0,1,6.25.79,9,9,0,0,1,5,3.6c1.21,2,1.15,4.52-.08,7.56A20.19,20.19,0,0,1,109.43,167.68Zm-26.2-23c-2.1,1.32-3.34,2.14-3.73,2.44,1.38,1.77,2.06,2.66,3.42,4.45s2,2.68,3.27,4.47a23.08,23.08,0,0,0,3.35-1.9c4.62-3.36,6-6.43,4-9.34-.72-1-2.17-1.57-4.34-1.63A10.5,10.5,0,0,0,83.23,144.73ZM96.9,158.21c-1.4.75-3.61,2.11-6.48,3.79,2.26,3.21,3.37,4.83,5.54,8.08a55.32,55.32,0,0,0,7.66-6.68c2.28-2.35,3.17-3.93,2.6-4.77-.77-1.11-2.33-1.61-4.65-1.48a11.47,11.47,0,0,0-4.68,1.06Z"/><path id="Path_1019" data-name="Path 1019" class="cls-5" d="M131.36,120.35a5.86,5.86,0,0,1-1.24.35,37.36,37.36,0,0,0-9.24,2.8,35.38,35.38,0,0,0-4.18,2.3,45.65,45.65,0,0,0-4.37,3.19c1.27,2,3.06,5,5.3,9,.93-.53,4.12-2.49,9.78-5.67,3.22-1.81,5.33-2.89,6.25-3.28a5,5,0,0,1,3.22-.27,3.56,3.56,0,0,1,2.39,1.87c1,1.87.37,3.46-1.73,4.58-1.33.71-3.46,1.73-6.08,3.2-2.34,1.31-5.92,3.34-10.57,6.07q1.52,3,2.52,4.77c1.7,3,2.83,4.62,3.44,4.85.29.11,1.38-.29,3.31-1.19l4.68-2.24c2.09-1,3.68-1.71,4.74-2.17a13.49,13.49,0,0,0,1.45-.78,10.92,10.92,0,0,1,1.43-.77,4.67,4.67,0,0,1,2.95-.28,3.45,3.45,0,0,1,2.41,2c.84,1.78.32,3.24-1.51,4.41a111.06,111.06,0,0,1-10.24,5c-5.4,2.46-9.16,3.5-11.5,2.95-2.57-.6-5.24-3.34-8.13-8.22-1.2-2-2.86-5.14-5-9.33s-4-7.26-5.25-9.23a18.4,18.4,0,0,0-1.78-2.16,21.57,21.57,0,0,1-1.8-2.15c-1.52-2.24-1.07-4,1.42-5.3a5.07,5.07,0,0,1,2.54-.55,56.19,56.19,0,0,1,5.3-3.92,43.2,43.2,0,0,1,5.2-2.88,37.51,37.51,0,0,1,12.05-3.63c2-.19,3.49.45,4.3,1.88a3,3,0,0,1,.22,2.56A3.8,3.8,0,0,1,131.36,120.35Z"/><path id="Path_1020" data-name="Path 1020" class="cls-5" d="M168.14,107.24a6.5,6.5,0,0,1-1.32.22,40.4,40.4,0,0,0-9.8,1.85,35.41,35.41,0,0,0-4.55,1.88,49.87,49.87,0,0,0-4.83,2.73c1.1,2.11,2.63,5.28,4.52,9.53,1-.44,4.52-2.07,10.68-4.66,3.51-1.48,5.8-2.33,6.78-2.62a5.19,5.19,0,0,1,3.35.06,3.65,3.65,0,0,1,2.28,2.1c.83,2,0,3.48-2.26,4.38-1.44.57-3.75,1.37-6.6,2.56-2.55,1.06-6.45,2.71-11.53,5q1.24,3.12,2.11,5c1.44,3.16,2.44,4.89,3.05,5.18.29.14,1.46-.16,3.54-.86,1.13-.37,2.8-1,5.07-1.74s4-1.33,5.13-1.67a12.6,12.6,0,0,0,1.57-.64,13,13,0,0,1,1.56-.62,5.09,5.09,0,0,1,3.09,0,3.53,3.53,0,0,1,2.28,2.22c.7,1.86,0,3.26-2,4.24-1.71.83-5.46,2.06-11.1,3.89-5.83,1.89-9.84,2.54-12.21,1.76-2.6-.86-5.08-3.85-7.55-9-1-2.13-2.42-5.4-4.23-9.78s-3.32-7.62-4.45-9.71a16.94,16.94,0,0,0-1.61-2.33,20.51,20.51,0,0,1-1.62-2.32c-1.33-2.38-.68-4.1,2-5.13a5.29,5.29,0,0,1,2.67-.3,57.85,57.85,0,0,1,5.87-3.37,44.88,44.88,0,0,1,5.65-2.35,39.84,39.84,0,0,1,12.78-2.39c2.13,0,3.55.8,4.24,2.3a2.89,2.89,0,0,1,0,2.58A3.82,3.82,0,0,1,168.14,107.24Z"/><path id="Path_1021" data-name="Path 1021" class="cls-5" d="M218.54,131.16a5.16,5.16,0,0,1-3.22-.61,51.35,51.35,0,0,0-22.76-6.13c2,4.83,3,7.53,3.17,8.06a3,3,0,0,1-.32,2.7,3.88,3.88,0,0,1-2.5,1.67,4.66,4.66,0,0,1-3.16-.3,3.77,3.77,0,0,1-2-2.14c-.45-1.25-1.11-3.13-2-5.63s-1.6-4.37-2.09-5.61c-3.12-8-4.79-12.07-8.32-20a4.15,4.15,0,0,1-.13-3.24,4.4,4.4,0,0,1,3.65-2.64c5.12-1,7.79-1.41,7.92-1.42a27.09,27.09,0,0,1,8.14,0c10.39,1.73,16.5,5.63,18.32,11.08a7.23,7.23,0,0,1-.81,6.4c-1.26,2-3.52,3.94-6.7,5.8a46.66,46.66,0,0,1,14.35,5.71,3.75,3.75,0,0,1,1.69,2.14,2.89,2.89,0,0,1-.57,2.68A4.08,4.08,0,0,1,218.54,131.16Zm-30.22-28.25c-.17,0-1.4.23-3.66.65,2.21,5.3,3.28,8,5.31,13.29l1.32-.28c4.85-1.13,8.31-2.38,10.33-3.9a9.59,9.59,0,0,0,2.23-2.31c.61-.9.85-1.53.71-1.9-.67-1.9-2.8-3.48-6.38-4.62A21.84,21.84,0,0,0,188.32,102.91Z"/><path id="Path_1022" data-name="Path 1022" class="cls-5" d="M231.5,130.82a6.58,6.58,0,0,1-5.92-3.92,2.44,2.44,0,0,1,.63-2.42,4.08,4.08,0,0,1,2.57-1.27,6.52,6.52,0,0,1,5.93,4,2.47,2.47,0,0,1-.67,2.4A4,4,0,0,1,231.5,130.82Zm-2.33-9.45a4.93,4.93,0,0,1-3.06-.55,3.51,3.51,0,0,1-1.76-2.14c-.19-.67-.5-1.67-.94-3s-.76-2.33-1-3c-.71-2.38-1.77-6-3.27-10.72s-2.71-8.33-3.54-10.7a2.4,2.4,0,0,1,.39-2.46,4,4,0,0,1,2.67-1.35,5.55,5.55,0,0,1,3.33.5,3.69,3.69,0,0,1,2,2.14c3.68,11,5.33,16.55,8.27,27.62a2.51,2.51,0,0,1-.51,2.42,3.9,3.9,0,0,1-2.59,1.25Z"/></g></g></g></g></g><g class="cls-17"><g id="Mask_Group_19" data-name="Mask Group 19"><g id="Group_661" data-name="Group 661"><g id="Group_639" data-name="Group 639"><path id="Path_880" data-name="Path 880" class="cls-5" d="M606,48.48c23.56-27.23,306.87,248.2,301.56,251.87-18.88,40.2-63.69,108.36-135.34,138.11V453c1.94,5.84,8.37,25.41,10.26,33,.15.58.28,1.17.4,1.77a82.82,82.82,0,0,1,16.25,4.08,51.27,51.27,0,0,1,25.81-6.61c14.24,0,30.31,5.16,47.77,15.34,17.93,10.47,47,33.07,39.81,66.9-5.93,28.06-35.7,50.32-61.71,55.33l-9,12.22c16.93,46.45,36.94,86.77,50,99.81,33,33,72.48,215.11,76.88,235.76l3.23,15.18-15.31-2.55c-.24,0-24.76-4.08-42.67-4.08-4.38,0-6,1.33-10.39,5.56l-1.71,1.62c6.5,47.48,14.88,102.49,19.4,131.73.89,5.14,1.78,10.25,2.66,15.13,13.64,7.74,45,29.12,45,61.64v75.62l-7.63,2.21c-1.52.43-37.62,10.75-77.5,10.75-24.09,0-44.6-3.8-61-11.3l-5-2.3-1-5.45c-2.94-16.48-28.21-160.16-22.25-200l-8.77-70.78c-10.57,3.17-23.24,10.18-33.14,15.65-8,4.41-14.27,7.89-19.36,9.59a25.36,25.36,0,0,1-8,1.1c-4.69,0-11-.8-19.29-2.42l-1.9,43.28,6.26,2.93L700.63,1169a52,52,0,0,1,9.58,16.11l.16-.09.19,1.06a42.93,42.93,0,0,1,2.5,14.42l11.71,67.92-7,3.51c-30.54,15.27-68.39,18.48-94.76,18.48-34.65,0-90.58-7-100.62-22.07-9.5-14.24-10.23-55-10.23-67.19v-.68l.09-.69c.2-1.55,5.48-37.47,57.08-51.91a59.6,59.6,0,0,0,4.93-8.83c4.11-18.8,7.8-37.21,10.95-54.76a257.2,257.2,0,0,0-.11-28.18l-.64-8.64,7.06-2c3-20.89,4.9-39.41,5.7-55.29-1.14,0-2.29,0-3.46,0a281.83,281.83,0,0,0-41.73,3.6l-14.68,2.54,2.44-14.7c.28-1.65,27.58-165.5,35.93-219.78,2.79-18.15,3-46.16.5-83.3-2-3.69-3.94-7.23-5.72-10.54L566,680.34l-23.72-32c-2.31-.06-3.67-.13-3.75-.13l-2.43-.15L534,646.87c-1.31-.73-32.17-18.33-35.07-49.21-2-21,9.34-42,33.63-62.42,17.53-14.7,34.56-22.15,50.62-22.15a49.75,49.75,0,0,1,12.21,1.52,232.16,232.16,0,0,1,22.93-17.94l2-1.33,2.38-.34c.24,0,4.41-.63,11.44-1.52,1.33-10.68,5-16,9.07-18.42A88.94,88.94,0,0,0,645,464.29c-8.67.52-17.11.78-25.21.78-30.63,0-75.95-12.47-99.21-29.39M385.76,366.92c2.58,5.5,5.57,10.7,8.9,13.45a9.3,9.3,0,0,0,1.85-2,65.72,65.72,0,0,1-8.79-8.94C387.05,368.65,386.4,367.8,385.76,366.92Zm552.3-70.81a22.13,22.13,0,0,0,5.2,5.2c-.12-1.5-.2-3-.23-4.52a78.87,78.87,0,0,1,1-14q-2.82,2.35-5.67,4.66Q938.27,291.77,938.06,296.11ZM752.54-1.58q3.09-1,6.07-1.82A22.9,22.9,0,0,0,755-3.66a40.06,40.06,0,0,0-8.92,1.13Z"/></g><path id="Path_884" data-name="Path 884" class="cls-5" d="M620,124.84s-36-91.7,140.61-91.7,263.27,108.62,263.27,140.34S863.14,414.54,687.63,414.54s-334.1-61.33-353.13-80.36S387.36,88.29,493.09,88.29,620,124.84,620,124.84Z"/><path id="Path_886" data-name="Path 886" class="cls-5" d="M665,94.17s-71.54-53.34-108-42.24-126,61.66-180.6,78.32-68.87-1.1-68.87-1.1,28.09,52.23,63.73,71.2S682.92,178.24,665,94.17Z"/><g id="Group_641" data-name="Group 641"><path id="Path_923" data-name="Path 923" class="cls-5" d="M359.05,320.69a181,181,0,0,0,17.11,52.05c3.25,6.34,7.86,18.39,15.47,20.67,6.71,2,12.72-3.52,15.53-9,4.09-8.06,3.64-18.23,3.62-27a235.36,235.36,0,0,0-3.45-39.3c.14.85-.15,1.78,0,2.64,3,17.53,6.33,38.11,1.82,55.48-2.29,8.83-11.63,20.24-21.17,12.41-8.57-7-13.84-21.79-18-31.78a182.74,182.74,0,0,1-11-38.72c.15.85-.15,1.78,0,2.64Z"/></g><path id="Path_950" data-name="Path 950" class="cls-18" d="M391.43,300.11a81.14,81.14,0,0,0,41.64,61.61c11.4,6.1,27.5,8.45,35.69-1.56"/><path id="Path_951" data-name="Path 951" class="cls-18" d="M394.24,307c-4.45,11.59.87,24.85,8.85,34.35,17.23,20.53,50.3,28.36,71.94,12.55"/><g id="Group_660" data-name="Group 660"><path id="Path_952" data-name="Path 952" class="cls-5" d="M383.35,311c-3.2,18.25.73,37.21,12.58,51.84,20.17,24.88,57.18,27.12,82,8,.44-.34-.41-2.33,0-2.64-17.95,13.8-42.8,17.09-63.36,7-22.35-11-35.54-37.06-31.24-61.57.15-.85-.15-1.79,0-2.64Z"/></g></g></g></g></svg>