<svg id="Layer_1" data-name="Layer 1" xmlns="http://www.w3.org/2000/svg" xmlns:xlink="http://www.w3.org/1999/xlink" viewBox="0 0 398 710.34"><defs><style>.cls-1,.cls-15,.cls-18,.cls-19,.cls-20,.cls-9{fill:none;}.cls-2{clip-path:url(#clip-path);}.cls-3{fill:#020202;}.cls-4,.cls-7{fill:#fdc889;}.cls-5{fill:#573a1e;}.cls-13,.cls-6{fill:#fff;}.cls-13,.cls-15,.cls-16,.cls-17,.cls-18,.cls-20,.cls-21,.cls-7{stroke:#020202;}.cls-13,.cls-15,.cls-16,.cls-17,.cls-18,.cls-19,.cls-20,.cls-21,.cls-7{stroke-miterlimit:10;}.cls-16,.cls-17,.cls-7{stroke-width:2px;}.cls-8{fill:#334f9c;}.cls-9{stroke:#fff;stroke-width:16px;}.cls-10{clip-path:url(#clip-path-2);}.cls-11,.cls-17{fill:#fdc789;}.cls-12,.cls-16{fill:#262626;}.cls-14{fill:#69b83d;}.cls-18,.cls-19{stroke-width:0.25px;}.cls-19{stroke:#8c8e8b;}.cls-20{stroke-width:0.5px;}.cls-21{fill:#d2d3cf;}</style><clipPath id="clip-path"><rect class="cls-1" x="-488.79" width="363" height="693"/></clipPath><clipPath id="clip-path-2"><rect class="cls-1" x="15" y="17" width="368" height="676"/></clipPath></defs><title>candiates</title><g class="cls-2"><g id="Mask_Group_20" data-name="Mask Group 20"><g id="Group_664" data-name="Group 664"><path id="Path_970" data-name="Path 970" class="cls-3" d="M-336.24,1253.32c-45.52,0-85.92-17.31-87.62-18l-5.69-2.47v-24.64c-2.1-22.46,7.1-65.64,55-79.31-4.63-57.83,5.16-123.79,5.6-126.69l2.37-15.7c-4.38-44.54-4.67-115.05,1.35-155-37.87-25.61-53.6-75.68-43.86-139.46-16.38-3.1-31.35-12.44-44-27.49-6,2-12.94,3.72-19.2,3.72a25.11,25.11,0,0,1-10.23-1.94c-14.22-6.32-18.74-22.24-16.43-36.33a27,27,0,0,1-7-22.51c-9.12-6-11.37-12.7-11.47-17.62-.07-3.68,1-8.38,5.33-13.16A21.87,21.87,0,0,1-518.66,563c-1.22-16.3,17.72-27.13,23.95-30.68q7.6-4.35,14.49-7.59c-1.92-2.73-4.12-6.2-6.67-10.59-5.35-9.24-11.93-23-12.89-36.09-1.38-18.74,8.95-31.47,28.43-35.26a165.86,165.86,0,0,1-17.08-23.38A95.49,95.49,0,0,1-512,422.62c-26.17,0-43.16-13.91-47.83-39.16-2.5-13.49-.24-24.56,6.71-32.91,5.78-6.95,13.58-10.51,20.83-12.28-1.58-9.22-3.38-26.8,1.43-44.42A16.52,16.52,0,0,1-529.45,283c-27.26-98.94-17.06-113.52-13.68-118.34,13.48-19.26,121.5-115.48,133.77-126.39l3.08-2.74,4.1.39c.44,0,45,4.32,89.9,9.23,93.3,10.2,96.9,12.91,100.1,15.3,2.15,1.62,6.57,4.93,39.82,56.39,6.68-.32,13.13-.52,19.56-.63l3.73-.06,2.77,2.51c4.61,4.18,24.88,23.35,30.45,42.05.64-.05,1.29-.08,1.95-.08,16.42,0,25.61,26.15,28,34.17,5.41,17.9,6.89,39.61-2.52,53.31,11.18,13.3,21.28,32.69,18.08,57.69-5.08,39.6-42.49,80.24-111.21,120.85a113.32,113.32,0,0,0,10.15,27.61c18.7-7,67.75-24.56,91.8-26.16,24.36-1.63,52.15-13.58,61.47-19.92,1-11.84,4-46.39,7.59-66.72C-17.88,335-18.4,327.94-17,323.52c.8-4.14,5.22-27.06,10.44-54-8.66-4.38-14.68-13.86-14.68-24.81,0-14.86,11.07-27,24.82-27.4,5-25.57,8-41.05,9.07-46.09,3.55-17.16,14.36-26.83,19-31l.3-.26c2.58-6.31,12-33,17.78-49.42C53.57,79.44,55.88,72.91,57.29,69a10.19,10.19,0,0,1-1-6.85c.18-.85.42-2,4.64-11.76a13.2,13.2,0,0,1,2.69-8.82c3-3.86,7.84-5.83,14.46-5.83A65,65,0,0,1,90.87,37.3c6.71,1.39,16,4.14,19.13,11.94a13.07,13.07,0,0,1,0,10,29.26,29.26,0,0,1,.23,11.53,14.32,14.32,0,0,1-3.34,7l-6.72,76.85c8.22,20.67,8.28,31.09,7,36.14a25.06,25.06,0,0,1,7.72,18,24.75,24.75,0,0,1-3.12,12.07A26.67,26.67,0,0,1,118.8,239a27,27,0,0,1-8.94,19.9,26.71,26.71,0,0,1,1.38,8.45,27,27,0,0,1-8.95,19.9,26.4,26.4,0,0,1,1.39,8.45c0,13.26-9.84,24.36-22.86,26.87-2.83,14.26-4.07,20.47-4.16,20.9a14,14,0,0,1-1.32,3.67c-3.59,30-20,95.15-22.08,103.26-.74,6.95-7,43-56.27,54.83-44.33,10.64-80.26,51-85.44,95.85-.36,3.14-.74,7-1.17,11.35l4.1,2.46.77,4.22c3,16.35,28.31,161,8.75,204.05l-.53,1.16-24.91,29.9-7-4.2c-.18-.11-1.57-.95-3.77-2.35,1.72,5.73,3.45,11.53,5.15,17.25,7.37,24.79,15.73,52.89,19.33,59.37,7.59,13.65,4.83,32,2.62,46.83l-.18,1.24,3.47-3.09v135.84c43,10.74,56.41,44.86,60.54,62.38l1.66-.1.18,10v32l-7.16,1.79c-20.71,5.18-43.81,7.8-68.66,7.8-51.63,0-93.15-11.16-94.89-11.63l-7-1.9V978.93l10.71,2a161.15,161.15,0,0,1,6.06-30.82c-5.7-7.46-16.6-26.2-37.29-78.22-4.57.26-8.79.3-12.56.3-5.87,0-11,.32-15.93.63-2.22.14-4.38.27-6.54.37-2.39,34-6.88,84.31-13.44,102.8v12.87c7.46,2.16,8.9,9.25,10.54,34.67.92,14.28,1.68,34.34,2.27,59.62,1.06,44.91,1.29,94.94,1.35,114.69a69.54,69.54,0,0,1,0,10.8l-.54,5.26-.41.2,2.22,8.15-4.47,3.9C-275.8,1244.19-303.09,1253.32-336.24,1253.32Zm-88.49-732.83c7,4.2,13.32,10.44,18.76,17.1,1.49-12.38,5.47-22.79,11.85-30.57,7.25-8.84,17.17-13.71,27.93-13.71A39.22,39.22,0,0,1-344.73,500a10.32,10.32,0,0,1,4.2-4.73l11.68-8.34a210.31,210.31,0,0,1-34.53,3c-34.71,0-64.94-10.1-89.55-29.64,2.56,6,5.19,12.83,6.19,17.84,2.1,10.48,12.9,35.77,18.28,39.11A13.39,13.39,0,0,1-424.73,520.49Z"/><path id="Path_971" data-name="Path 971" class="cls-3" d="M109.35,239A18,18,0,0,0,97.4,222.37a15.6,15.6,0,0,0-.8-27.61c.75-3.75,1.17-5.89,1.17-5.89s3.36-7-7.25-32.79L98,70.78s2,3,3-1.94-1-10.43-.9-11.05S107.31,50.36,89,46.56,69.56,47.65,70.64,51.7c0,0-4.86,11.13-5.11,12.35s3.54,1.38,2.55,3.09S41.43,143.35,39.7,145.55,25.4,156,21.85,173.14c-1.32,6.38-5.78,29.18-10.86,55.3a14.59,14.59,0,0,0-6.76-1.69c-8.87,0-16.07,8-16.07,18s7.2,18,16.07,18h.12C-2.14,296.12-7.9,326-7.9,326s-2.56,5.36,7.84,11.29C-4.82,358.63-9,412.92-9,412.92c-7.56,7.56-41.58,22.68-69.93,24.57s-96.4,28.36-96.4,28.36c-8.91-13-14-29.38-16.9-43.93,142.64-82.13,121.14-144.17,90.82-174,23.14-15.4,2.42-77.87-12.49-77.87-10.51,0-20.31,13.72-26.25,24.65-4.95-8.57-9.74-19.13-11.91-30.39a219.88,219.88,0,0,1,28.18,5.74c.42-18-28.76-44.42-28.76-44.42q-12.6.21-24.7.9c-15.47-24-35.94-55.12-40.52-58.55-7.56-5.67-185.22-22.68-185.22-22.68S-522.16,151.15-535.39,170.05c-10.07,14.38,7.23,82.4,16.07,114.09-2.23,3.42-3,6.23-2,8.3l.42,1.28c-7.49,23.61-.82,48.69-.82,48.69q5.64-8.34,11.39-16.2l.68,2.1-1.54,3.71s1.8,4.52,4.56,11.2q.38,2.14.87,4.65c-8.21-3.62-52-5.55-44.71,33.87,7.77,41.95,51.29,31.54,66.54,26.5,25.46,46.07,76.79,91.47,178.48,63.88a108.15,108.15,0,0,0,1.63,22.08c1,5.24-2.3,14.34-7.85,26.57-2.84-21.88,2.18-36,2.18-36L-336,503.65c-.46,0-1.85,5.51-3.95,14.14a25.69,25.69,0,0,0-3.61-4.69c-24.57-24.57-64.26-5.67-51,60.48,0,0-16.78-36.2-37.66-46.44.5-.4.24-1-1.09-1.76-9.45-5.67-20.79-35.91-22.68-45.36s-11.34-28.35-11.34-28.35c-51,7.56-1.89,73.71,0,73.71,0,0,4,.52,9.23,1.08-8.25,2.11-18.72,6.5-31.91,14-39.69,22.68-5.67,35.91-5.67,35.91-17.38,8.7-15.57,19,1,26.46-4,7.65-2.4,18.38,6.32,23.55-3.74,11.19-1.63,26.24,9.68,31.27,6.06,2.69,17.17.33,28.77-4.4,13,17.64,30.6,30,51.84,30.43-9.58,50.27-6.68,114.14,43.2,143.13-8.32,44.92-6.39,142.52.63,180.75a25.1,25.1,0,0,1-5.36-4s-11.09,73.47-4.77,132.56c-61.8,12.1-55.71,71.57-55.71,71.57s.7.65,2,1.75l-2,.14v17s100.17,43.47,158.77-7.56l-2.75-10.06,2.75-1.28a63,63,0,0,0,0-9.52c-.11-40.72-1-198.64-7.54-200.28-1.13-.29-3.45.16-6.62,1V974.28c7.05-16.92,12-79.08,14.06-110.34,9.85.18,18.88-1.18,31.3-1.18a161.11,161.11,0,0,0,18.77-.86c11,28,31.08,76.61,41.72,85.92,0,0-8.7,25.16-7.43,44.32-6.47-1-10.53-1.8-10.53-1.8v207.91s83.16,22.68,158.77,3.78v-24.57H-29c-1.17-9.86-9.41-55.72-62.2-64.64V990.35a18.76,18.76,0,0,1-6,3.37,6.28,6.28,0,0,0,1.29-4.32c-1.89-13.23,9.45-43.47,0-60.48-6.3-11.34-21.19-66.68-33.43-105A269.09,269.09,0,0,0-103.5,842l18.9-22.68C-65.7,777.71-94,620.83-94,620.83a36.63,36.63,0,0,0-5.6-2.72c.7-7.23,1.28-13.36,1.82-18.07,5.67-49.14,45.36-92.61,92.62-103.95s49.14-47.25,49.14-47.25S63.13,373.64,66.2,344a5.6,5.6,0,0,0,1.22-2.37c.1-.5,2.35-11.79,5.58-28a18.41,18.41,0,0,0,2.23.13c10.5,0,19-8,19-17.95a17.36,17.36,0,0,0-4.55-11.64,18,18,0,0,0,12.11-16.71,17.36,17.36,0,0,0-4.55-11.64A18,18,0,0,0,109.35,239Z"/><path id="Path_974" data-name="Path 974" class="cls-4" d="M-196.12,386.46s0,49.14,20.79,79.39c0,0,68-26.47,96.39-28.36s62.38-17,69.94-24.57c0,0,5.67-73.71,11.34-83.16s45.36-96.4,45.36-92.61,18.9,77.49,18.9,100.17S43.92,448.84,43.92,448.84,42,484.75-5.22,496.09-92.17,550.9-97.84,600-112.95,853.31-228.25,842s-153.1-49.14-143.65-147.42,71.82-179.56,68-200.35a105.3,105.3,0,0,1,0-37.8Z"/><path id="Path_1001" data-name="Path 1001" class="cls-5" d="M-7.9,326s-5.6,11.62,33,19.6,42-2.16,42.34-4S97.77,188.86,97.77,188.86s3.36-7-7.25-32.79L98,70.77s1.94,3,3-1.94-1-10.43-.9-11S107.31,50.36,89,46.55s-19.39,1.1-18.31,5.15c0,0-4.86,11.13-5.12,12.35s3.55,1.38,2.56,3.09S41.43,143.35,39.7,145.55,25.4,156,21.85,173.14-7.9,326-7.9,326Z"/><path id="Path_1002" data-name="Path 1002" class="cls-6" d="M15.84,203.56s2.73,15.38,74,18.81L68.49,329.76s-52.92,5.67-73.71-15.12Z"/><ellipse id="Ellipse_33" data-name="Ellipse 33" class="cls-7" cx="4.23" cy="244.71" rx="16.07" ry="17.96"/><ellipse id="Ellipse_34" data-name="Ellipse 34" class="cls-7" cx="88.34" cy="208.79" rx="17.01" ry="16.07"/><ellipse id="Ellipse_35" data-name="Ellipse 35" class="cls-7" cx="90.34" cy="239.03" rx="19.01" ry="17.96"/><ellipse id="Ellipse_36" data-name="Ellipse 36" class="cls-7" cx="82.78" cy="267.39" rx="19.01" ry="17.96"/><ellipse id="Ellipse_37" data-name="Ellipse 37" class="cls-7" cx="75.22" cy="295.74" rx="19.01" ry="17.96"/></g></g></g><g id="Rectangle_5" data-name="Rectangle 5"><rect class="cls-8" x="1" width="398" height="710.34"/><rect class="cls-9" x="9" y="8" width="382" height="694.34"/></g><g class="cls-10"><g id="Mask_Group_19" data-name="Mask Group 19"><g id="Group_661" data-name="Group 661"><g id="Group_639" data-name="Group 639"><path id="Path_880" data-name="Path 880" class="cls-3" d="M99.2,48.48c23.56-27.23,306.87,248.2,301.56,251.87-18.88,40.2-63.69,108.36-135.34,138.11V453c1.94,5.84,8.37,25.41,10.26,33,.15.58.28,1.17.4,1.77a82.82,82.82,0,0,1,16.25,4.08,51.27,51.27,0,0,1,25.81-6.61c14.24,0,30.31,5.16,47.77,15.34,17.93,10.47,47,33.07,39.81,66.9-5.93,28.06-35.7,50.32-61.71,55.33L335,635c16.93,46.45,36.94,86.77,50,99.81,33,33,72.48,215.11,76.88,235.76l3.23,15.18-15.31-2.55c-.24,0-24.76-4.08-42.67-4.08-4.38,0-6,1.33-10.39,5.56L395,986.31c6.5,47.48,14.88,102.49,19.4,131.73.89,5.14,1.79,10.25,2.66,15.13,13.64,7.74,45,29.12,45,61.64v75.62l-7.63,2.21c-1.52.43-37.62,10.75-77.5,10.75-24.09,0-44.6-3.8-60.95-11.3l-5-2.3-1-5.45c-2.94-16.48-28.21-160.16-22.25-200L279,993.53c-10.57,3.17-23.24,10.18-33.14,15.65-8,4.41-14.27,7.89-19.36,9.59a25.36,25.36,0,0,1-8,1.1c-4.69,0-11.05-.8-19.29-2.42l-1.9,43.28,6.26,2.93L193.84,1169a52,52,0,0,1,9.58,16.11l.16-.09.19,1.06a42.93,42.93,0,0,1,2.5,14.42L218,1268.42l-7,3.51c-30.54,15.27-68.39,18.48-94.76,18.48-34.65,0-90.58-7-100.62-22.07-9.5-14.24-10.23-55-10.23-67.19v-.68l.09-.69c.2-1.55,5.48-37.47,57.08-51.91a58.71,58.71,0,0,0,4.93-8.83c4.11-18.8,7.8-37.21,11-54.76a257.2,257.2,0,0,0-.11-28.18l-.64-8.64,7.06-2c3-20.89,4.9-39.41,5.7-55.29-1.14,0-2.29,0-3.46,0a281.83,281.83,0,0,0-41.73,3.6l-14.68,2.54L33,981.61c.28-1.65,27.58-165.5,35.93-219.78,2.79-18.15,3-46.16.5-83.3-2-3.69-3.94-7.23-5.72-10.54l-4.45,12.35-23.72-32c-2.31-.06-3.67-.13-3.75-.13l-2.43-.15-2.12-1.19C25.9,646.14-5,628.54-7.86,597.66c-2-21,9.34-42,33.63-62.42,17.53-14.7,34.56-22.15,50.62-22.15a49.75,49.75,0,0,1,12.21,1.52,232.16,232.16,0,0,1,22.93-17.94l2-1.33,2.38-.34c.24,0,4.41-.63,11.44-1.52,1.33-10.68,5-16,9.07-18.42a88.94,88.94,0,0,0,1.79-10.77c-8.67.52-17.11.78-25.21.78-30.63,0-75.95-12.47-99.21-29.39M-121,366.92c2.58,5.5,5.57,10.7,8.9,13.45a9.3,9.3,0,0,0,1.85-2,65.72,65.72,0,0,1-8.79-8.94C-119.74,368.65-120.39,367.8-121,366.92Zm552.3-70.81a22.13,22.13,0,0,0,5.2,5.2c-.12-1.5-.2-3-.23-4.52a78.87,78.87,0,0,1,.95-14q-2.82,2.35-5.67,4.66Q431.48,291.77,431.27,296.11ZM245.75-1.58q3.09-1,6.07-1.82a22.9,22.9,0,0,0-3.61-.26,40.06,40.06,0,0,0-8.92,1.13Z"/></g><path id="Path_884" data-name="Path 884" class="cls-3" d="M113.18,124.84s-35.95-91.7,140.61-91.7S517.06,141.76,517.06,173.48,356.35,414.54,180.84,414.54s-334.1-61.33-353.13-80.36S-119.43,88.29-13.7,88.29,113.18,124.84,113.18,124.84Z"/><path id="Path_885" data-name="Path 885" class="cls-11" d="M-30.62,389.16s23.26,93,230.49,57.09S414.5,206.25,405,196.74,195.64-16.84,94.14,84.66-123.66,296.12-30.62,389.16Z"/><path id="Path_886" data-name="Path 886" class="cls-3" d="M158.22,94.17S86.68,40.83,50.27,51.93s-126,61.66-180.6,78.32-68.87-1.1-68.87-1.1,28.09,52.23,63.73,71.2S176.13,178.24,158.22,94.17Z"/><path id="Path_889" data-name="Path 889" class="cls-12" d="M117.4,505.46S66.65,539.3,68.77,564.67s19,143.79,10.57,198.77S43.39,983.35,43.39,983.35s48.64-8.45,74,0,93,29.6,105.73,25.38,44.41-27.49,65.55-27.49,50.75,6.34,76.13,6.34,23.26-19,42.29-19,44.41,4.23,44.41,4.23-42.3-198.77-74-230.49S288.68,554.09,299.26,516,117.4,505.46,117.4,505.46Z"/><path id="Path_890" data-name="Path 890" class="cls-11" d="M254.85,416.65v38.06s-29.6,78.24-48.63,86.7-61.33-57.09-61.33-57.09,12.69-40.18-6.34-42.29S254.85,416.65,254.85,416.65Z"/><path id="Path_891" data-name="Path 891" class="cls-13" d="M68.77,368c-27.49,0-38.06-4.23-52.86-19a26.15,26.15,0,0,1-6.69-11,28.11,28.11,0,0,1,2.24-20.85c11.72-9.57,26.35-17.84,39.34-17.84a58.57,58.57,0,0,1,12,1.23c12.46,8.1,23.14,21.82,28.21,29,2,2.85,3.17,4.67,3.17,4.67S96.26,368,68.77,368Z"/><circle id="Ellipse_19" data-name="Ellipse 19" class="cls-14" cx="66.65" cy="340.53" r="23.26"/><path id="Path_892" data-name="Path 892" class="cls-3" d="M94.14,84.66S142.78,2.2,225.24,8.54c0,0,62.74,51.35,67.67,67.67,28.65,94.72-318,195.58-351,112.07C-58.1,188.28-51.76,74.09,94.14,84.66Z"/><path id="Path_893" data-name="Path 893" class="cls-13" d="M257.89,282.88c0,9.92-13.23,41.34-33.08,41.34-18.7,0-37.39,4.4-50.55.75q-1.2-.32-2.37-.75S158.67,271.3,205,248.15c18.75-9.37,31-7.09,38.91-.41C255.54,257.6,257.89,277,257.89,282.88Z"/><ellipse id="Ellipse_20" data-name="Ellipse 20" class="cls-14" cx="226.6" cy="276.26" rx="28.25" ry="31.42"/><path id="Path_894" data-name="Path 894" class="cls-3" d="M243.88,247.74c-34.08,10.73-59.2,56-67.87,73.58-.7,1.4-1.27,2.62-1.75,3.65a22.38,22.38,0,0,1-2.37-.74S158.67,271.31,205,248.16C223.72,238.78,236,241.06,243.88,247.74Z"/><path id="Path_895" data-name="Path 895" class="cls-3" d="M91,329.51c-19-1.73-55.63-3.07-81.75,8.48a28.1,28.1,0,0,1,2.24-20.85c11.72-9.58,26.35-17.85,39.34-17.85a58.57,58.57,0,0,1,12,1.23C75.22,308.62,85.9,322.34,91,329.51Z"/><path id="Path_896" data-name="Path 896" class="cls-15" d="M143.84,316.21s-31.72-12.69-31.72,29.6S162.87,350,162.87,350"/><g id="Path_897" data-name="Path 897"><path class="cls-6" d="M216.28,545.14l-.48-3.6c0-.08-1.08-8-2.9-16-3.22-14.28-6-16.62-7-17l-1.7-.57,1.38-1.15c.12-.11,12.81-10.69,25.06-22.43a210.51,210.51,0,0,0,16.73-17.58,49.59,49.59,0,0,0,5.12-7.26c1.4-2.55,1.52-3.93,1.38-4.63l1.93-.51c.09.25,8.5,25.51,10.59,33.9a42,42,0,0,1,.83,13,58.14,58.14,0,0,1-.81,6.47l-.11.51-.46.21c-.11.05-10.67,4.82-21.87,11.33-14.67,8.53-23.75,16.13-26.26,22Z"/><path class="cls-6" d="M216.79,541.41c6.34-14.8,48.63-33.83,48.63-33.83s2.12-10.58,0-19-10.57-33.84-10.57-33.84c2.12,10.58-48.63,52.87-48.63,52.87,6.34,2.11,10.57,33.83,10.57,33.83m-1,7.46-1-7.2c0-.07-1.07-7.95-2.88-16a80.86,80.86,0,0,0-3.25-11.22c-1.75-4.45-3-5-3.1-5l-3.4-1.13,2.76-2.3c.12-.1,12.79-10.68,25-22.39a208.17,208.17,0,0,0,16.64-17.49c6.34-7.75,6.42-10.42,6.29-11.05l3.86-1c.35,1,8.51,25.55,10.62,34,2.19,8.79.11,19.46,0,19.91l-.21,1-.93.42c-.11.05-10.64,4.8-21.79,11.29a137.1,137.1,0,0,0-16.16,10.76c-5.1,4.07-8.36,7.68-9.67,10.75Z"/></g><g id="Path_898" data-name="Path 898"><path class="cls-6" d="M192.34,549.28l-1.34-.62c-.13,0-12.86-5.9-25.69-12.71-7.55-4-13.66-7.56-18.16-10.56a55.71,55.71,0,0,1-6.39-4.82c-1.84-1.67-2.87-3.07-3.18-4.29-.91-3.63-1.37-10.12-1.15-16.17a55.57,55.57,0,0,1,.95-8.9,16,16,0,0,1,2.51-6.52,4.17,4.17,0,0,1,3.34-1.81,4.72,4.72,0,0,1,2.11.54c8.34,4.17,46.1,21,46.48,21.13l.17.07.13.14c.51.51,1,1.56,1.19,8.18.08,3.61.05,8.49-.1,14.49-.26,10.2-.79,20.28-.8,20.38Z"/><path class="cls-6" d="M191.41,547.75s2.12-40.17,0-42.29c0,0-38.06-16.91-46.52-21.14a3.68,3.68,0,0,0-1.66-.44c-6.78,0-6.65,24.3-4.68,32.16,2.11,8.45,52.86,31.71,52.86,31.71m1.85,3-2.68-1.23c-.13-.06-12.89-5.92-25.74-12.74-7.58-4-13.72-7.59-18.25-10.61a56.67,56.67,0,0,1-6.51-4.91c-2-1.83-3.11-3.35-3.47-4.79-.93-3.71-1.4-10.32-1.18-16.44.19-5.4,1-12.57,3.67-16a5.14,5.14,0,0,1,4.13-2.2,5.75,5.75,0,0,1,2.56.65c8.32,4.16,46.06,20.94,46.44,21.11l.34.15.26.26c.64.64,1,1.62,1.18,3.62.14,1.29.24,3.05.3,5.24.08,3.63.05,8.52-.1,14.54-.27,10.22-.79,20.31-.8,20.41Z"/></g><path id="Path_899" data-name="Path 899" class="cls-3" d="M179.78,212.53v33.83c-8.81,8.06-14.9,14-15.86,15.92v-38S170,219.4,179.78,212.53Z"/><path id="Path_900" data-name="Path 900" class="cls-3" d="M194.59,202.55v30.58c-3.75,3.3-7.3,6.47-10.58,9.41V209.61C187.25,207.37,190.8,205,194.59,202.55Z"/><path id="Path_901" data-name="Path 901" class="cls-3" d="M271.77,167.13s-41.43,34.66-72.95,62.28V199.84C220.19,186.35,247.92,171.47,271.77,167.13Z"/><path id="Path_902" data-name="Path 902" class="cls-3" d="M79.34,287.66s-2.11-25.37-8.46-31.72c0,0-55-12.68-84.58,0C-13.7,255.94,58.2,275,79.34,287.66Z"/><path id="Path_903" data-name="Path 903" class="cls-3" d="M92,74.1S144.89,2.2,183,2.2s138.5,22.2,195.6,22.2S444.11,3.25,444.11,3.25,432.48,61.4,403.93,90,99.43,159.73,92,74.1Z"/><path id="Path_904" data-name="Path 904" class="cls-3" d="M253.79,104.75S321.46,202,323.57,248.54c0,0,2.12-50.75,0-86.7S253.79,104.75,253.79,104.75Z"/><path id="Path_905" data-name="Path 905" class="cls-15" d="M340.49,269.69s23.26-71.9,12.69-107.84"/><path id="Path_906" data-name="Path 906" class="cls-3" d="M258,125.9s89.87,134.27,98.33,227.31c0,0,22.45-129.64,32-155.42C411.82,134.82,280.1,91.39,258,125.9Z"/><path id="Path_907" data-name="Path 907" class="cls-3" d="M-14.45,162.9S-44,323.61,7.45,407.64l-.75,45s-5.6-38.06-18.28-55-74-4.23-61.32-103.61S-14.45,162.9-14.45,162.9Z"/><circle id="Ellipse_21" data-name="Ellipse 21" class="cls-3" cx="68.77" cy="336.3" r="16.92"/><circle id="Ellipse_22" data-name="Ellipse 22" class="cls-3" cx="229.77" cy="271.3" r="21.5"/><circle id="Ellipse_23" data-name="Ellipse 23" class="cls-6" cx="210.76" cy="282.05" r="4.13"/><circle id="Ellipse_24" data-name="Ellipse 24" class="cls-6" cx="50.8" cy="339.47" r="5.29"/><path id="Path_909" data-name="Path 909" class="cls-16" d="M271.77,541.41s12.68-76.12,88.81-31.72,12.69,103.62-27.49,103.62S271.77,541.41,271.77,541.41Z"/><path id="Path_910" data-name="Path 910" class="cls-17" d="M62.43,642.91s48.63,95.16,61.32,97.27,50.75-14.8,63.43-23.26,44.14-51.61,44.14-51.61-48.36-35.09-52.59-22.4S147,691.55,138.55,689.43,92,606.16,89.91,614,62.43,642.91,62.43,642.91Z"/><path id="Path_911" data-name="Path 911" class="cls-16" d="M32.37,637.65s-67.34-37.68.2-94.3,101.8,23.11,88.2,60.91S32.37,637.65,32.37,637.65Z"/><path id="Path_912" data-name="Path 912" class="cls-17" d="M138.28,691.21c-10.93-16.37,3.47-37.86,22.71-33.68.27.06-12.14-4.11-11.87-4,27.49,6.35,52.87,25.38,52.87,25.38S271.77,571,278.11,571s42.16,40.18,43.28,42.3-75,97.27-83.46,103.61-44.4,31.72-78.23,6.34C144.13,711.59,145.72,702.35,138.28,691.21Z"/><g id="Path_913" data-name="Path 913"><path class="cls-6" d="M56.27,660.27l-1.11-1.5L41.54,640.39l-.4-.54.35-.57c.07-.12,1.72-2.81,4.81-6.88a125.62,125.62,0,0,1,13.51-15.06,91.22,91.22,0,0,1,21-15.1,59.76,59.76,0,0,1,27.25-6.9,56.7,56.7,0,0,1,19.21,3.43l.39.14.18.38,8.38,17.78.51,1.09-1.16.3a371.13,371.13,0,0,0-36.62,12.1A170.89,170.89,0,0,0,72.2,643.44c-8.43,5.23-13.58,10.3-15.29,15.07Z"/><path class="cls-6" d="M56,658.17c7.86-21.89,79.31-40.68,79.31-40.68l-8.38-17.78A55.59,55.59,0,0,0,108,596.34c-39.18,0-65.68,43.46-65.68,43.46L56,658.17m.61,4.2-2.22-3L40.74,641l-.8-1.08.7-1.15c.07-.12,1.75-2.85,4.87-7a126.34,126.34,0,0,1,13.61-15.19,92.77,92.77,0,0,1,21.21-15.27,60.71,60.71,0,0,1,27.7-7,57.67,57.67,0,0,1,19.55,3.49l.78.28.35.75,8.38,17.78,1,2.18-2.33.61A370.68,370.68,0,0,0,99.27,631.5a169.19,169.19,0,0,0-26.55,12.79,58.14,58.14,0,0,0-9.7,7.3,19.86,19.86,0,0,0-5.17,7.26Z"/></g><g id="Path_915" data-name="Path 915"><path class="cls-6" d="M328.28,628l-.82-.88c-.12-.12-12-12.78-26.6-25.27a186.14,186.14,0,0,0-23.23-17.32c-8.46-5.15-15.41-7.77-20.67-7.77a13.81,13.81,0,0,0-2.07.15l-1.84.28.79-1.69,9.71-20.71.29-.61.67,0a98,98,0,0,1,10.81,1.38,120.87,120.87,0,0,1,24.3,7c10.5,4.34,19.22,10,25.89,16.85a55.84,55.84,0,0,1,9.76,13.5,56.64,56.64,0,0,1,5.58,17.57l.06.41-.24.33L329,627Z"/><path class="cls-6" d="M264.46,555.2l-9.72,20.7a16.11,16.11,0,0,1,2.22-.16c23.87,0,71.23,50.68,71.23,50.68l11.67-15.81c-7.79-51.83-75.4-55.41-75.4-55.41m-1.24-2.07,1.34.07a97.09,97.09,0,0,1,10.93,1.4,120.87,120.87,0,0,1,24.51,7c10.63,4.39,19.46,10.13,26.22,17.07a56.34,56.34,0,0,1,15.62,31.62l.12.82-.49.66L329.8,627.61l-1.43,1.93-1.64-1.76c-.12-.12-12-12.75-26.53-25.2-19-16.25-34-24.84-43.24-24.84a13.14,13.14,0,0,0-1.92.14l-3.69.56,1.58-3.39,9.72-20.7Z"/></g><path id="Path_922" data-name="Path 922" class="cls-15" d="M361.78,181.6a104.43,104.43,0,0,1,32.72,58.06"/><g id="Group_644" data-name="Group 644"><path id="Path_926" data-name="Path 926" class="cls-3" d="M-59.36,319c2.39,16.88,4.77,33.81,8.68,50.43,3.36,14.29,6.65,32.39,19.83,41,11.15,7.31,24.83,8.76,35.33,17.4,12.32,10.13,19.14,44.28,19.1,44.9.79-13.82-11.23-47.11-35-56.46-7.44-2.92-15.42-5.16-21.78-10.2-7.57-6-10.66-15.19-13.37-24.13-6.49-21.37-9.61-43.56-12.74-65.62.12.86-.12,1.78,0,2.64Z"/></g><g id="Group_646" data-name="Group 646"><path id="Path_929" data-name="Path 929" class="cls-3" d="M315.41,183.82c-8.21,45.08,6.67,92.27,40.75,123.37-.42-.39.45-2.24,0-2.65-32.47-29.62-48.67-74.61-40.75-118.08.16-.86-.15-1.79,0-2.64Z"/></g><g id="Group_647" data-name="Group 647"><path id="Path_930" data-name="Path 930" class="cls-3" d="M374.26,158c41,48.86,56.43,115.79,39.78,177.53-.22.83.22,1.83,0,2.65,17-63.08,2.32-132.63-39.78-182.82C374.69,155.87,373.82,157.48,374.26,158Z"/></g><g id="Group_657" data-name="Group 657"><path id="Path_942" data-name="Path 942" class="cls-3" d="M23.74,72.8C-4.95,66.68-37.69,61-61.74,82.16c-.44.4.43,2.27,0,2.64,24.05-21.2,56.8-15.48,85.48-9.36-.16,0,.2-2.6,0-2.64Z"/></g><g id="Group_658" data-name="Group 658"><path id="Path_943" data-name="Path 943" class="cls-3" d="M148.67,45.59A188,188,0,0,1,200.52,3.08c16.4-9,44.35-24.54,62.57-13.49-.37-.23.41-2.4,0-2.64-18.22-11-46.18,4.43-62.57,13.48a188.13,188.13,0,0,0-51.85,42.51c-.44.52.43,2.15,0,2.64Z"/></g><path id="Path_944" data-name="Path 944" class="cls-18" d="M340.75,34.42,358.45,45"/><path id="Path_945" data-name="Path 945" class="cls-18" d="M296.68,149.5a112.14,112.14,0,0,0,26.37,74.35"/><g id="Group_659" data-name="Group 659"><path id="Path_946" data-name="Path 946" class="cls-3" d="M282.47,148.19a218.3,218.3,0,0,0,5.2,68.12c-.2-.83.2-1.81,0-2.64a200.75,200.75,0,0,1-5.2-62.84c.06-.88-.07-1.77,0-2.64Z"/></g><path id="Path_947" data-name="Path 947" class="cls-18" d="M274,133.27c5.25,14.73,11.48,29.5,21.89,41.17s25.75,19.93,41.32,18.34"/><path id="Path_954" data-name="Path 954" class="cls-19" d="M99.78,62.09c-20.45,8.6-36.39,25.42-49.2,43.55S27.5,143.58,14.51,161.57"/><path id="Path_955" data-name="Path 955" class="cls-19" d="M59.26,110.55,43.33,153"/><path id="Path_956" data-name="Path 956" class="cls-19" d="M68.51,94.73A767,767,0,0,0,42.32,214.86"/><path id="Path_957" data-name="Path 957" class="cls-19" d="M88.23,96.62A402.66,402.66,0,0,0,63.31,222"/><path id="Path_958" data-name="Path 958" class="cls-19" d="M112.93,66.44a169.52,169.52,0,0,0,1.94,94"/><path id="Path_959" data-name="Path 959" class="cls-19" d="M174.3,66.38A608.24,608.24,0,0,1,233,95.92"/><path id="Path_960" data-name="Path 960" class="cls-19" d="M142.39,57.58l78.34,47.05"/><path id="Path_961" data-name="Path 961" class="cls-19" d="M156.64,80.43a494,494,0,0,0,63.68,37.28"/><path id="Path_962" data-name="Path 962" class="cls-19" d="M135.35,84q33.3,31.47,69.09,60.15"/><path id="Path_963" data-name="Path 963" class="cls-19" d="M119.23,73.51a280,280,0,0,0,66.54,75"/><path id="Path_964" data-name="Path 964" class="cls-19" d="M112.28,92.88l37.18,100.91"/><path id="Path_965" data-name="Path 965" class="cls-19" d="M91.19,111.27a427.93,427.93,0,0,0,33.52,92.1"/><path id="Path_966" data-name="Path 966" class="cls-19" d="M40.92,127a233.66,233.66,0,0,0-7.69,91.6"/><path id="Path_967" data-name="Path 967" class="cls-19" d="M115.8,89.35a207.4,207.4,0,0,0,74.46,88.49"/><path id="Path_968" data-name="Path 968" class="cls-15" d="M130.09,408.19s28.11-22,80.67-25.78"/><path id="Path_969" data-name="Path 969" class="cls-20" d="M156.52,409.25s16.92-8.46,33.84-10.57"/><circle id="Ellipse_25" data-name="Ellipse 25" class="cls-21" cx="206.66" cy="394.4" r="6.95"/><circle id="Ellipse_26" data-name="Ellipse 26" class="cls-21" cx="142.33" cy="413.53" r="6.95"/></g></g></g></svg>