<?xml version="1.0" encoding="utf-8"?>
<!-- Generator: Adobe Illustrator 23.0.2, SVG Export Plug-In . SVG Version: 6.00 Build 0)  -->
<svg version="1.1" xmlns="http://www.w3.org/2000/svg" xmlns:xlink="http://www.w3.org/1999/xlink" x="0px" y="0px"
	 viewBox="0 0 398 120" style="enable-background:new 0 0 398 120;" xml:space="preserve">
<style type="text/css">
	.st0{fill:#FCC688;}
	.st1{fill:#FCC687;}
	.st2{fill:#2694C0;}
	.st3{fill:#FFFFFF;}
	.st4{fill:#573A1E;}
	.st5{fill:#EA2127;}
	.st6{fill:#FCC688;stroke:#000000;stroke-width:2;stroke-miterlimit:10;}
	.st7{fill:#BF9A73;}
	.st8{fill:#2D2D2D;}
	.st9{fill:#FCC588;}
	.st10{fill:#D0D2CE;stroke:#000000;stroke-miterlimit:10;}
	.st11{fill:#262626;}
	.st12{fill:#FFFFFF;stroke:#000000;stroke-miterlimit:10;}
	.st13{fill:#62C335;}
	.st14{fill:none;stroke:#000000;stroke-miterlimit:10;}
	.st15{fill:#262626;stroke:#000000;stroke-width:2;stroke-miterlimit:10;}
	.st16{fill:#FCC588;stroke:#000000;stroke-width:2;stroke-miterlimit:10;}
	.st17{fill:#8B8D8A;}
	.st18{fill:none;stroke:#000000;stroke-width:0.5;stroke-miterlimit:10;}
	.st19{fill:#D0D2CE;}
	.st20{fill:none;stroke:#4B737F;stroke-width:2;stroke-miterlimit:10;}
	.st21{fill:#E1BE69;}
	.st22{fill:#F5BF84;stroke:#000000;stroke-width:1.7906;stroke-miterlimit:10;}
	.st23{fill:#F5BF84;stroke:#000000;stroke-width:1.8553;stroke-miterlimit:10;}
	.st24{fill:#F399C0;stroke:#000000;stroke-width:2;stroke-miterlimit:10;}
	.st25{fill:#FFF8B0;}
	.st26{fill:#38B349;}
	.st27{clip-path:url(#SVGID_2_);}
	.st28{fill:none;}
	.st29{clip-path:url(#SVGID_4_);}
	.st30{fill:#1C1B1A;}
	.st31{fill:#007CAA;}
	.st32{fill:#E86775;}
	.st33{fill:#020202;}
	.st34{fill:#FFAFBA;}
	.st35{fill:#E1BD68;}
	.st36{fill:#F5BF84;stroke:#000000;stroke-width:2;stroke-miterlimit:10;}
	.st37{fill:#C5EFEE;}
	.st38{fill:none;stroke:#1C1B1A;stroke-width:2;stroke-miterlimit:10;}
	.st39{fill:url(#);}
	.st40{fill:#E6F0DC;stroke:#1C1B1A;stroke-width:2.0922;stroke-miterlimit:10;}
	.st41{fill:#87120E;}
	.st42{fill:#EFCEE7;}
	.st43{fill:#9F8A75;}
	.st44{fill:#A2AAAF;stroke:#000000;stroke-width:2;stroke-miterlimit:10;}
	.st45{fill:#E6F0DC;stroke:#1C1B1A;stroke-width:2;stroke-miterlimit:10;}
	.st46{fill:#F5BF84;}
	.st47{fill:#E6F0DC;stroke:#6A457C;stroke-width:5;stroke-miterlimit:10;}
	.st48{fill:#353535;}
	.st49{fill:#FFFFFF;stroke:#000000;stroke-width:1.2674;stroke-miterlimit:10;}
	.st50{fill:#91E497;}
	.st51{fill:#FFFFFF;stroke:#000000;stroke-width:1.3196;stroke-miterlimit:10;}
	.st52{clip-path:url(#SVGID_6_);fill:#91E497;}
	.st53{fill:#FFF8B0;stroke:#1C1B1A;stroke-width:2;stroke-miterlimit:10;}
	.st54{fill:none;stroke:#000000;stroke-width:2;stroke-miterlimit:10;}
	.st55{fill:#E86775;stroke:#020202;stroke-width:2;stroke-miterlimit:10;}
	.st56{fill:#E6F0DC;stroke:#1C1B1A;stroke-width:2.1818;stroke-miterlimit:10;}
	.st57{fill:#38B349;stroke:#000000;stroke-width:0.5929;stroke-miterlimit:10;}
	.st58{fill:#E6F0DC;stroke:#1C1B1A;stroke-width:5;stroke-miterlimit:10;}
	.st59{fill:#FCC687;stroke:#1B1A19;stroke-width:2.5925;stroke-miterlimit:10;}
	.st60{fill:none;stroke:#000000;stroke-width:1.7638;stroke-miterlimit:10;}
	.st61{fill:#FCC588;stroke:#000000;stroke-miterlimit:10;}
	.st62{fill:#C4BA70;}
	.st63{fill:none;stroke:#050505;stroke-miterlimit:10;}
	.st64{fill:#D7DBDD;}
	.st65{fill:#262626;stroke:#020202;stroke-miterlimit:10;}
	.st66{fill:#D0D2CE;stroke:#000000;stroke-width:0.4561;stroke-miterlimit:10;}
	.st67{fill:#87120E;stroke:#020202;stroke-miterlimit:10;}
	.st68{fill:#E6F0DC;stroke:#1C1B1A;stroke-miterlimit:10;}
	.st69{fill:none;stroke:#000000;stroke-width:0.9968;stroke-miterlimit:10;}
	.st70{fill:#E6F0DC;stroke:#3E1A5B;stroke-width:5;stroke-miterlimit:10;}
	.st71{fill:#3E1A5B;}
	.st72{fill:none;stroke:#000000;stroke-width:1.5232;stroke-miterlimit:10;}
	.st73{fill:#BF9A73;stroke:#1C1B1A;stroke-width:2;stroke-miterlimit:10;}
	.st74{fill:#7B7B7B;}
	.st75{fill:#231F20;}
	.st76{fill:#8A8989;}
	.st77{fill:#4FE3F6;}
	.st78{enable-background:new    ;}
	.st79{clip-path:url(#SVGID_8_);fill:#CE3434;}
	.st80{clip-path:url(#SVGID_10_);enable-background:new    ;}
	.st81{fill:#CE3434;}
	.st82{clip-path:url(#SVGID_12_);enable-background:new    ;}
	.st83{clip-path:url(#SVGID_14_);enable-background:new    ;}
	.st84{clip-path:url(#SVGID_16_);enable-background:new    ;}
	.st85{clip-path:url(#SVGID_18_);enable-background:new    ;}
	.st86{clip-path:url(#SVGID_20_);enable-background:new    ;}
	.st87{clip-path:url(#SVGID_22_);fill:#CE3434;}
	.st88{clip-path:url(#SVGID_24_);enable-background:new    ;}
	.st89{clip-path:url(#SVGID_26_);fill:#CE3434;}
	.st90{clip-path:url(#SVGID_28_);}
	.st91{clip-path:url(#SVGID_30_);fill:#CE3434;}
	.st92{clip-path:url(#SVGID_32_);enable-background:new    ;}
	.st93{clip-path:url(#SVGID_34_);fill:#CE3434;}
	.st94{clip-path:url(#SVGID_36_);fill:#CE3434;}
	.st95{clip-path:url(#SVGID_38_);enable-background:new    ;}
	.st96{clip-path:url(#SVGID_40_);enable-background:new    ;}
	.st97{clip-path:url(#SVGID_42_);enable-background:new    ;}
	.st98{clip-path:url(#SVGID_44_);enable-background:new    ;}
	.st99{clip-path:url(#SVGID_46_);fill:#CE3434;}
	.st100{clip-path:url(#SVGID_48_);fill:#CE3434;}
	.st101{clip-path:url(#SVGID_50_);enable-background:new    ;}
	.st102{clip-path:url(#SVGID_52_);enable-background:new    ;}
	.st103{clip-path:url(#SVGID_54_);enable-background:new    ;}
	.st104{clip-path:url(#SVGID_56_);enable-background:new    ;}
	.st105{clip-path:url(#SVGID_58_);enable-background:new    ;}
	.st106{clip-path:url(#SVGID_60_);}
	.st107{clip-path:url(#SVGID_62_);enable-background:new    ;}
	.st108{clip-path:url(#SVGID_64_);enable-background:new    ;}
	.st109{clip-path:url(#SVGID_66_);enable-background:new    ;}
	.st110{clip-path:url(#SVGID_68_);fill:#CE3434;}
	.st111{clip-path:url(#SVGID_70_);enable-background:new    ;}
	.st112{clip-path:url(#SVGID_72_);enable-background:new    ;}
	.st113{clip-path:url(#SVGID_74_);enable-background:new    ;}
	.st114{clip-path:url(#SVGID_76_);fill:#CE3434;}
	.st115{clip-path:url(#SVGID_78_);enable-background:new    ;}
	.st116{clip-path:url(#SVGID_80_);fill:#CE3434;}
	.st117{clip-path:url(#SVGID_82_);fill:#CE3434;}
	.st118{clip-path:url(#SVGID_84_);enable-background:new    ;}
	.st119{clip-path:url(#SVGID_86_);enable-background:new    ;}
	.st120{clip-path:url(#SVGID_88_);fill:#CE3434;}
	.st121{clip-path:url(#SVGID_90_);enable-background:new    ;}
	.st122{clip-path:url(#SVGID_92_);enable-background:new    ;}
	.st123{clip-path:url(#SVGID_94_);enable-background:new    ;}
	.st124{clip-path:url(#SVGID_96_);enable-background:new    ;}
	.st125{clip-path:url(#SVGID_98_);enable-background:new    ;}
	.st126{clip-path:url(#SVGID_100_);enable-background:new    ;}
	.st127{clip-path:url(#SVGID_102_);enable-background:new    ;}
	.st128{clip-path:url(#SVGID_104_);enable-background:new    ;}
	.st129{clip-path:url(#SVGID_106_);enable-background:new    ;}
	.st130{clip-path:url(#SVGID_108_);enable-background:new    ;}
	.st131{clip-path:url(#SVGID_110_);enable-background:new    ;}
	.st132{clip-path:url(#SVGID_112_);enable-background:new    ;}
	.st133{clip-path:url(#SVGID_114_);enable-background:new    ;}
	.st134{clip-path:url(#SVGID_116_);enable-background:new    ;}
	.st135{clip-path:url(#SVGID_118_);enable-background:new    ;}
	.st136{clip-path:url(#SVGID_120_);enable-background:new    ;}
	.st137{clip-path:url(#SVGID_122_);enable-background:new    ;}
	.st138{clip-path:url(#SVGID_124_);enable-background:new    ;}
	.st139{clip-path:url(#SVGID_126_);enable-background:new    ;}
	.st140{clip-path:url(#SVGID_128_);enable-background:new    ;}
	.st141{clip-path:url(#SVGID_130_);enable-background:new    ;}
	.st142{clip-path:url(#SVGID_132_);enable-background:new    ;}
	.st143{clip-path:url(#SVGID_134_);enable-background:new    ;}
	.st144{clip-path:url(#SVGID_136_);enable-background:new    ;}
	.st145{clip-path:url(#SVGID_138_);enable-background:new    ;}
	.st146{clip-path:url(#SVGID_140_);enable-background:new    ;}
	.st147{clip-path:url(#SVGID_142_);enable-background:new    ;}
	.st148{clip-path:url(#SVGID_144_);fill:#CE3434;}
	.st149{clip-path:url(#SVGID_146_);fill:#CE3434;}
	.st150{fill:#E71A1A;}
	.st151{fill:#F8F7E4;}
	.st152{fill:#282F8B;}
	.st153{clip-path:url(#SVGID_148_);fill:#E63C1C;}
	.st154{clip-path:url(#SVGID_148_);fill:url(#SVGID_149_);}
	.st155{clip-path:url(#SVGID_148_);fill:url(#SVGID_150_);}
	.st156{clip-path:url(#SVGID_148_);fill:url(#SVGID_151_);}
	.st157{clip-path:url(#SVGID_148_);fill:url(#SVGID_152_);}
	.st158{clip-path:url(#SVGID_148_);fill:url(#SVGID_153_);}
	.st159{clip-path:url(#SVGID_148_);fill:url(#SVGID_154_);}
	.st160{clip-path:url(#SVGID_148_);fill:url(#SVGID_155_);}
	.st161{clip-path:url(#SVGID_148_);fill:url(#SVGID_156_);}
	.st162{clip-path:url(#SVGID_148_);fill:url(#SVGID_157_);}
	.st163{clip-path:url(#SVGID_148_);fill:url(#SVGID_158_);}
	.st164{clip-path:url(#SVGID_148_);fill:url(#SVGID_159_);}
	.st165{clip-path:url(#SVGID_148_);fill:#FFF9F0;}
	.st166{clip-path:url(#SVGID_148_);fill:url(#SVGID_160_);}
	.st167{clip-path:url(#SVGID_148_);fill:url(#SVGID_161_);}
	.st168{clip-path:url(#SVGID_148_);fill:url(#SVGID_162_);}
	.st169{clip-path:url(#SVGID_148_);fill:url(#SVGID_163_);}
	.st170{clip-path:url(#SVGID_148_);fill:url(#SVGID_164_);}
	.st171{clip-path:url(#SVGID_148_);fill:url(#SVGID_165_);}
	.st172{clip-path:url(#SVGID_148_);fill:url(#SVGID_166_);}
	.st173{clip-path:url(#SVGID_148_);fill:url(#SVGID_167_);}
	.st174{clip-path:url(#SVGID_148_);fill:url(#SVGID_168_);}
	.st175{clip-path:url(#SVGID_148_);fill:url(#SVGID_169_);}
	.st176{clip-path:url(#SVGID_148_);fill:url(#SVGID_170_);}
	.st177{clip-path:url(#SVGID_148_);fill:#0B1550;}
	.st178{clip-path:url(#SVGID_148_);fill:#132B70;}
	.st179{clip-path:url(#SVGID_148_);fill:url(#SVGID_171_);}
	.st180{clip-path:url(#SVGID_148_);fill:none;stroke:url(#SVGID_172_);stroke-width:2;stroke-miterlimit:10;}
	.st181{clip-path:url(#SVGID_148_);fill:url(#SVGID_173_);}
	.st182{clip-path:url(#SVGID_175_);fill:#E63C1C;}
	.st183{clip-path:url(#SVGID_175_);fill:url(#SVGID_176_);}
	.st184{clip-path:url(#SVGID_175_);fill:url(#SVGID_177_);}
	.st185{clip-path:url(#SVGID_175_);fill:url(#SVGID_178_);}
	.st186{clip-path:url(#SVGID_175_);fill:url(#SVGID_179_);}
	.st187{clip-path:url(#SVGID_175_);fill:url(#SVGID_180_);}
	.st188{clip-path:url(#SVGID_175_);fill:url(#SVGID_181_);}
	.st189{clip-path:url(#SVGID_175_);fill:url(#SVGID_182_);}
	.st190{clip-path:url(#SVGID_175_);fill:url(#SVGID_183_);}
	.st191{clip-path:url(#SVGID_175_);fill:url(#SVGID_184_);}
	.st192{clip-path:url(#SVGID_175_);fill:url(#SVGID_185_);}
	.st193{clip-path:url(#SVGID_175_);fill:url(#SVGID_186_);}
	.st194{clip-path:url(#SVGID_175_);fill:#FFF9F0;}
	.st195{clip-path:url(#SVGID_175_);fill:url(#SVGID_187_);}
	.st196{clip-path:url(#SVGID_175_);fill:url(#SVGID_188_);}
	.st197{clip-path:url(#SVGID_175_);fill:url(#SVGID_189_);}
	.st198{clip-path:url(#SVGID_175_);fill:url(#SVGID_190_);}
	.st199{clip-path:url(#SVGID_175_);fill:url(#SVGID_191_);}
	.st200{clip-path:url(#SVGID_175_);fill:url(#SVGID_192_);}
	.st201{clip-path:url(#SVGID_175_);fill:url(#SVGID_193_);}
	.st202{clip-path:url(#SVGID_175_);fill:url(#SVGID_194_);}
	.st203{clip-path:url(#SVGID_175_);fill:url(#SVGID_195_);}
	.st204{clip-path:url(#SVGID_175_);fill:url(#SVGID_196_);}
	.st205{clip-path:url(#SVGID_175_);fill:url(#SVGID_197_);}
	.st206{clip-path:url(#SVGID_175_);fill:#0B1550;}
	.st207{clip-path:url(#SVGID_175_);fill:#132B70;}
	.st208{clip-path:url(#SVGID_175_);fill:url(#SVGID_198_);}
	.st209{clip-path:url(#SVGID_175_);fill:none;stroke:url(#SVGID_199_);stroke-width:2;stroke-miterlimit:10;}
	.st210{clip-path:url(#SVGID_175_);fill:url(#SVGID_200_);}
	.st211{clip-path:url(#SVGID_202_);fill:#E63C1C;}
	.st212{clip-path:url(#SVGID_202_);fill:url(#SVGID_203_);}
	.st213{clip-path:url(#SVGID_202_);fill:url(#SVGID_204_);}
	.st214{clip-path:url(#SVGID_202_);fill:url(#SVGID_205_);}
	.st215{clip-path:url(#SVGID_202_);fill:url(#SVGID_206_);}
	.st216{clip-path:url(#SVGID_202_);fill:url(#SVGID_207_);}
	.st217{clip-path:url(#SVGID_202_);fill:url(#SVGID_208_);}
	.st218{clip-path:url(#SVGID_202_);fill:url(#SVGID_209_);}
	.st219{clip-path:url(#SVGID_202_);fill:url(#SVGID_210_);}
	.st220{clip-path:url(#SVGID_202_);fill:url(#SVGID_211_);}
	.st221{clip-path:url(#SVGID_202_);fill:url(#SVGID_212_);}
	.st222{clip-path:url(#SVGID_202_);fill:url(#SVGID_213_);}
	.st223{clip-path:url(#SVGID_202_);fill:#FFF9F0;}
	.st224{clip-path:url(#SVGID_202_);fill:url(#SVGID_214_);}
	.st225{clip-path:url(#SVGID_202_);fill:url(#SVGID_215_);}
	.st226{clip-path:url(#SVGID_202_);fill:url(#SVGID_216_);}
	.st227{clip-path:url(#SVGID_202_);fill:url(#SVGID_217_);}
	.st228{clip-path:url(#SVGID_202_);fill:url(#SVGID_218_);}
	.st229{clip-path:url(#SVGID_202_);fill:url(#SVGID_219_);}
	.st230{clip-path:url(#SVGID_202_);fill:url(#SVGID_220_);}
	.st231{clip-path:url(#SVGID_202_);fill:url(#SVGID_221_);}
	.st232{clip-path:url(#SVGID_202_);fill:url(#SVGID_222_);}
	.st233{clip-path:url(#SVGID_202_);fill:url(#SVGID_223_);}
	.st234{clip-path:url(#SVGID_202_);fill:url(#SVGID_224_);}
	.st235{clip-path:url(#SVGID_202_);fill:#0B1550;}
	.st236{clip-path:url(#SVGID_202_);fill:#132B70;}
	.st237{clip-path:url(#SVGID_202_);fill:url(#SVGID_225_);}
	.st238{clip-path:url(#SVGID_202_);fill:none;stroke:url(#SVGID_226_);stroke-width:2.4613;stroke-miterlimit:10;}
	.st239{clip-path:url(#SVGID_202_);fill:url(#SVGID_227_);}
	.st240{fill:#2C2CF3;}
	.st241{opacity:0.5;fill:url(#SVGID_228_);}
	.st242{opacity:0.5;fill:url(#SVGID_229_);}
	.st243{display:none;}
	.st244{fill:#2694C0;stroke:#1C1B1A;stroke-width:2;stroke-miterlimit:10;}
	.st245{fill:#D7F3FF;}
	.st246{clip-path:url(#SVGID_231_);}
	.st247{fill:none;stroke:#4B737F;stroke-width:0.24;stroke-miterlimit:10;}
	.st248{clip-path:url(#SVGID_233_);}
	.st249{clip-path:url(#SVGID_235_);}
	.st250{fill:#F399C0;}
	.st251{fill:#A2AAAF;}
	.st252{clip-path:url(#SVGID_237_);}
	.st253{fill:#95ABB1;}
	.st254{fill:#D5D5D5;}
	.st255{fill:#D3DDE2;}
	.st256{fill:#FCC687;stroke:#1B1A19;stroke-width:2;stroke-miterlimit:10;}
	.st257{fill:#EA2127;stroke:#1B1A19;stroke-width:2;stroke-miterlimit:10;}
	.st258{fill:#87120E;stroke:#000000;stroke-width:2;stroke-miterlimit:10;}
	.st259{fill:#F9FBF6;stroke:#1B1A19;stroke-width:0.9153;stroke-miterlimit:10;}
	.st260{fill:#573A1E;stroke:#1B1A19;stroke-width:2;stroke-miterlimit:10;}
	.st261{fill:none;stroke:#1C1B1A;stroke-width:2;stroke-miterlimit:1;}
	.st262{fill:#F9FBF6;stroke:#1B1A19;stroke-width:2;stroke-miterlimit:10;}
	.st263{fill:#E6F0DC;stroke:#EA2127;stroke-width:5;stroke-miterlimit:10;}
	.st264{fill:#F9FBF6;stroke:#1B1A19;stroke-miterlimit:10;}
	.st265{fill:#314EDD;}
	.st266{fill:#BEA6CC;}
	.st267{fill:#E6F0DC;}
	.st268{fill:#B5B7B2;}
</style>
<g id="Joe">
</g>
<g id="Ana">
</g>
<g id="Suzt">
</g>
<g id="Jeri">
</g>
<g id="Layer_6">
</g>
<g id="Layer_1">
	<g>
		<path d="M21.6,118C14.1,118,8,111.9,8,104.4V19.6C8,12.1,14.1,6,21.6,6h350.7c7.5,0,13.6,6.1,13.6,13.6v84.7
			c0,7.5-6.1,13.6-13.6,13.6H21.6z"/>
		<path d="M374.4,4H23.6c-6.4,0-11.7,5.3-11.7,11.7v13.7v57.3v13.7c0,6.4,5.3,11.7,11.7,11.7h350.7c6.4,0,11.7-5.3,11.7-11.7V86.7
			V29.4V15.7C386.1,9.3,380.8,4,374.4,4z"/>
		<path class="st3" d="M374.1,4H23.9c-6.6,0-12,5.4-12,12v13.4v57.3v13.4c0,6.6,5.4,12,12,12h350.1c6.6,0,12-5.4,12-12V86.7V29.4V16
			C386.1,9.4,380.7,4,374.1,4z"/>
		<linearGradient id="SVGID_2_" gradientUnits="userSpaceOnUse" x1="199" y1="4.516602e-03" x2="199" y2="108.1002">
			<stop  offset="0" style="stop-color:#FFFFFF;stop-opacity:0"/>
			<stop  offset="0.1205" style="stop-color:#FBFEFF;stop-opacity:6.022971e-02"/>
			<stop  offset="0.2454" style="stop-color:#EEFAFE;stop-opacity:0.1227"/>
			<stop  offset="0.3724" style="stop-color:#DAF3FD;stop-opacity:0.1862"/>
			<stop  offset="0.5008" style="stop-color:#BCEAFB;stop-opacity:0.2504"/>
			<stop  offset="0.6304" style="stop-color:#97DEF8;stop-opacity:0.3152"/>
			<stop  offset="0.761" style="stop-color:#69CFF5;stop-opacity:0.3805"/>
			<stop  offset="0.8898" style="stop-color:#34BEF1;stop-opacity:0.4449"/>
			<stop  offset="1" style="stop-color:#00ADEE;stop-opacity:0.5"/>
		</linearGradient>
		<path style="opacity:0.5;fill:url(#SVGID_2_);" d="M374.1,0H23.9c-6.6,0-12,5.4-12,12v13.4v57.3v13.4c0,6.6,5.4,12,12,12h350.1
			c6.6,0,12-5.4,12-12V82.7V25.4V12C386.1,5.4,380.7,0,374.1,0z"/>
		<g>
			<g>
				<path class="st3" d="M160.1,79.1c-0.1,0-0.2,0-0.2,0l-8-0.8c-0.7-0.1-1.3-0.4-1.7-0.9c-0.4-0.5-0.6-1.2-0.6-1.8
					c0.2-2.1,0.4-5.4,0.6-9.7c-0.7,2.5-1.3,4.8-2,6.9c-0.3,1.1-1.3,1.8-2.4,1.8c-0.1,0-0.1,0-0.2,0l-5.3-0.5
					c-1.1-0.1-1.9-0.8-2.2-1.9c-0.2-0.9-0.5-2-0.7-3.1c0.1,2.4,0.2,4.7,0.3,6.9c0,0.7-0.2,1.4-0.8,1.9c-0.5,0.5-1.1,0.7-1.7,0.7
					c-0.1,0-0.2,0-0.2,0l-7.7-0.7c-1.3-0.1-2.2-1.1-2.3-2.4c-0.3-10.1-0.5-17.8-0.5-23c0-5.2,0.3-10.8,1-16.8
					c0.1-1.3,1.2-2.2,2.5-2.2c0.1,0,0.1,0,0.2,0l11,0.9c1,0.1,1.9,0.8,2.2,1.8c0.8,2.8,1.6,6.2,2.4,10.2c1-4,2-8.2,2.9-12.6
					c0.2-1.2,1.3-2,2.4-2c0.1,0,0.1,0,0.2,0l11,1c1.3,0.1,2.2,1.2,2.3,2.4c0.3,12,0.5,20.9,0.5,26.4c0,5.6-0.2,10.6-0.5,15
					c-0.1,0.7-0.4,1.3-0.9,1.7C161.3,78.9,160.7,79.1,160.1,79.1z"/>
				<path class="st75" d="M149.1,34.4l11,1c0.3,12,0.5,20.8,0.5,26.4c0,5.6-0.2,10.5-0.5,14.8l-8-0.8c0.5-4.9,0.9-15.3,1.3-31.2
					l-0.5-0.1c-0.4,1.5-1,4.1-1.9,7.8c-1.8,7.7-3.5,14.2-5.2,19.6l-5.3-0.5c-0.9-3.7-2-8.6-3.2-14.5c-1.2-5.9-2.2-10.3-2.8-13.1
					l-0.5-0.1c0.4,13,0.8,23.8,1.2,32.3l-7.7-0.7c-0.3-10.1-0.5-17.8-0.5-22.9s0.3-10.6,1-16.5l11,0.9c1.4,4.9,2.8,11.8,4.3,20.6
					C145.5,50.4,147.5,42.7,149.1,34.4 M149.1,29.4c-2.4,0-4.4,1.7-4.9,4c-0.1,0.7-0.3,1.4-0.4,2.1c-0.6-2-2.3-3.4-4.4-3.5l-11-0.9
					c-0.1,0-0.3,0-0.4,0c-2.5,0-4.7,1.9-5,4.4c-0.7,6-1,11.7-1,17c0,5.2,0.2,13,0.5,23.1c0.1,2.5,2,4.6,4.5,4.8l7.7,0.7
					c0.2,0,0.3,0,0.5,0c1.3,0,2.5-0.5,3.5-1.4c0.9-0.8,1.4-2,1.5-3.2l5.2,0.5c0.1,0,0.3,0,0.4,0c0.5,0,0.9-0.1,1.4-0.2
					c0.2,0.8,0.5,1.5,1,2.2c0.8,1,2.1,1.7,3.4,1.8l8,0.8c0.2,0,0.3,0,0.5,0c1.2,0,2.3-0.4,3.2-1.2c1-0.9,1.7-2.1,1.8-3.4
					c0.4-4.4,0.5-9.6,0.5-15.2c0-5.6-0.2-14.5-0.5-26.5c-0.1-2.5-2-4.6-4.6-4.9l-11-1C149.4,29.4,149.3,29.4,149.1,29.4L149.1,29.4z
					"/>
			</g>
			<g>
				<path class="st3" d="M175.6,78.6c-0.1,0-0.2,0-0.2,0l-9-0.8c-1.3-0.1-2.2-1.2-2.3-2.4c-0.2-6.2-0.2-12.1-0.2-17.5
					c0-5.5,0.3-12.8,0.9-21.6c0.1-1.2,1-2.1,2.1-2.3c6.8-1,13.4-1.5,19.9-1.5c1.4,0,2.5,1.1,2.5,2.5V42c0,1.4-1.1,2.5-2.5,2.5
					c-3.5,0-6.8,0.1-9.8,0.3c-0.1,1.8-0.1,3.5-0.1,4.9c2.4-0.2,5-0.4,7.9-0.4c0,0,0,0,0,0c1.2,0,2.3,0.9,2.5,2.1l1.1,6.4
					c0.1,0.7-0.1,1.5-0.5,2c-0.5,0.6-1.2,0.9-1.9,0.9c-2.1,0-5.3,0.2-9.3,0.6c0,2,0,3.7,0,5.1c2.7-0.3,5.8-0.8,9.2-1.5
					c0.2,0,0.3,0,0.5,0c0.5,0,1,0.2,1.4,0.5c0.6,0.4,0.9,1,1,1.7l1,6.4c0.2,1.1-0.4,2.2-1.4,2.7C184.8,77.8,180.5,78.6,175.6,78.6z"
					/>
				<path class="st75" d="M186.8,34.9V42c-4.4,0-8.5,0.1-12.3,0.4c-0.2,4.4-0.3,7.7-0.3,10.1c3-0.4,6.5-0.7,10.5-0.8l1.1,6.4
					c-2.6,0-6.5,0.3-11.7,0.9c0,4.7,0,8,0.1,10.1c3.4-0.3,7.4-0.9,12.2-1.8l1,6.4c-3.3,1.5-7.2,2.3-11.7,2.3l-9-0.8
					c-0.2-6.2-0.2-12-0.2-17.5c0-5.5,0.3-12.6,0.9-21.4C174,35.4,180.5,34.9,186.8,34.9 M186.8,29.9c-6.6,0-13.4,0.5-20.3,1.6
					c-2.3,0.4-4.1,2.3-4.2,4.6c-0.6,8.9-0.9,16.2-0.9,21.8c0,5.5,0.1,11.4,0.2,17.6c0.1,2.5,2,4.6,4.5,4.9l9,0.8c0.2,0,0.3,0,0.5,0
					c5.2,0,9.9-0.9,13.8-2.7c2-0.9,3.2-3.1,2.9-5.3l-1-6.4c-0.2-1.3-0.9-2.5-2.1-3.3c-0.4-0.3-0.8-0.5-1.2-0.6
					c0.7-0.3,1.2-0.8,1.7-1.3c0.9-1.1,1.3-2.6,1.1-4l-1.1-6.4c-0.3-1.8-1.6-3.3-3.2-3.8c0.1,0,0.2,0,0.3,0c2.8,0,5-2.2,5-5v-7.2
					C191.8,32.1,189.6,29.9,186.8,29.9L186.8,29.9z"/>
			</g>
			<g>
				<path class="st3" d="M199.5,78.4c-0.6,0-2-0.1-8.2-0.8c-1.3-0.2-2.3-1.3-2.2-2.6c0.5-8.3,0.8-15.2,0.8-20.6
					c0-5.4-0.2-11.5-0.5-18.1c-0.1-1.1,0.6-2.1,1.7-2.5c4-1.4,7.8-2.1,11.2-2.1c5.4,0,9.6,2.2,12.6,6.5c2.8,4,4.2,8.9,4.2,14.5
					c0,4.2-0.7,8.2-2,12c-1.4,3.9-3.6,7.2-6.5,9.8C207.3,77,203.7,78.4,199.5,78.4z M202.5,43.6c0.1,4.9,0.2,9.1,0.2,12.5
					c0,3-0.1,6-0.2,9.2c0.5-0.5,1-1.3,1.7-2.5c1.6-2.8,2.3-5.8,2.3-9.1c0-3.2-0.5-5.9-1.6-7.9C204.3,44.8,203.5,43.6,202.5,43.6
					C202.5,43.6,202.5,43.6,202.5,43.6z"/>
				<path class="st75" d="M202.2,34.1c4.6,0,8.1,1.8,10.5,5.4c2.5,3.6,3.7,7.9,3.7,13c0,3.9-0.6,7.6-1.9,11.1
					c-1.2,3.5-3.2,6.4-5.8,8.8c-2.6,2.4-5.7,3.5-9.3,3.5c-0.7,0-3.4-0.3-7.9-0.8c0.5-8.4,0.8-15.3,0.8-20.8c0-5.5-0.2-11.6-0.5-18.2
					C195.6,34.8,199.1,34.1,202.2,34.1 M201,68.8c1.8,0,3.6-1.6,5.3-4.8c1.8-3.2,2.7-6.6,2.7-10.3s-0.6-6.7-1.9-9.1
					c-1.3-2.4-2.8-3.6-4.5-3.6c-0.9,0-1.8,0.2-2.6,0.5c0.2,5.8,0.2,10.6,0.2,14.5c0,3.9-0.1,8-0.4,12.2
					C200.1,68.6,200.5,68.8,201,68.8 M202.2,29.1c-3.7,0-7.8,0.8-12.1,2.3c-2.1,0.7-3.5,2.8-3.3,5c0.3,6.5,0.5,12.6,0.5,18
					c0,5.4-0.3,12.2-0.8,20.5c-0.2,2.7,1.8,5,4.4,5.3c7.2,0.9,8.1,0.9,8.5,0.9c4.8,0,9-1.6,12.6-4.8c3.3-2.9,5.7-6.5,7.2-10.8
					c1.4-4,2.2-8.3,2.2-12.8c0-6.1-1.5-11.4-4.6-15.9C213.5,31.7,208.4,29.1,202.2,29.1L202.2,29.1z"/>
			</g>
			<g>
				<path class="st3" d="M231.5,79c-0.1,0-0.1,0-0.2,0l-7.9-0.7c-1.2-0.1-2.2-1.1-2.3-2.3c-0.5-8-0.8-15.3-0.8-21.7
					c0-6.4,0.2-13.3,0.5-20.5c0-0.7,0.3-1.3,0.9-1.8c0.5-0.4,1-0.6,1.6-0.6c0.1,0,0.1,0,0.2,0l7.9,0.7c1.3,0.1,2.4,1.3,2.3,2.6
					c-0.3,6.1-0.5,13-0.5,20.7c0,7.6,0.3,14.7,0.8,20.9c0.1,0.7-0.2,1.5-0.7,2C232.8,78.8,232.2,79,231.5,79z"/>
				<path class="st75" d="M223.4,33.9l7.9,0.7c-0.4,6.2-0.5,13.1-0.5,20.8s0.3,14.7,0.8,21.1l-7.9-0.7c-0.5-7.9-0.8-15.1-0.8-21.5
					C222.9,47.9,223,41.1,223.4,33.9 M223.4,28.9c-1.2,0-2.4,0.4-3.3,1.2c-1,0.9-1.6,2.2-1.7,3.5c-0.4,7.2-0.5,14.1-0.5,20.6
					c0,6.5,0.3,13.8,0.8,21.9c0.2,2.5,2.1,4.4,4.5,4.7l7.9,0.7c0.1,0,0.3,0,0.4,0c1.3,0,2.6-0.5,3.5-1.4c1-1,1.6-2.5,1.5-3.9
					c-0.5-6.2-0.7-13.1-0.7-20.7c0-7.6,0.2-14.5,0.5-20.5c0.2-2.7-1.9-5-4.5-5.3l-7.9-0.7C223.7,28.9,223.5,28.9,223.4,28.9
					L223.4,28.9z"/>
			</g>
			<g>
				<path class="st3" d="M242.7,80.2l-8.2-0.7c-0.7-0.1-1.4-0.4-1.8-1s-0.6-1.3-0.4-2.1L242.8,34c0.3-1.1,1.3-1.9,2.4-1.9
					c0.1,0,0.1,0,0.2,0l10.8,0.9c1.1,0.1,2,0.9,2.2,2l7.7,39.6c0.1,0.8-0.1,1.6-0.6,2.1c-0.5,0.5-1.2,0.8-1.9,0.8
					c-0.1,0-0.1,0-0.2,0L255,77c-1.1-0.1-2.1-1-2.3-2.1l-1-5.9l-4.5,0.2l-1.8,9.1c-0.2,1.2-1.3,2-2.4,2
					C242.8,80.2,242.8,80.2,242.7,80.2z M249.4,57.8l0.5,0l-0.2-1.5L249.4,57.8z"/>
				<path class="st75" d="M245.2,34.6l10.8,0.9l7.7,39.6l-8.5-0.7l-1.3-8.1l-8.7,0.4l-2.2,11l-8.2-0.7L245.2,34.6 M246.4,60.4
					l6.5-0.2L250,42.3L246.4,60.4 M245.2,29.6c-2.3,0-4.3,1.6-4.9,3.8l-10.5,42.4c-0.4,1.4-0.1,2.9,0.8,4.1s2.2,1.9,3.6,2.1l8.2,0.7
					c0.1,0,0.3,0,0.4,0c2.4,0,4.4-1.7,4.9-4l1.4-7.1l0.4,0l0.6,3.8c0.4,2.3,2.2,4,4.5,4.2l8.5,0.7c0.1,0,0.3,0,0.4,0
					c1.4,0,2.8-0.6,3.7-1.7c1-1.2,1.5-2.8,1.2-4.3l-7.7-39.6c-0.4-2.2-2.3-3.8-4.5-4l-10.8-0.9C245.5,29.6,245.3,29.6,245.2,29.6
					L245.2,29.6z"/>
			</g>
		</g>
	</g>
</g>
</svg>
